<svg xmlns="http://www.w3.org/2000/svg" xmlns:xlink="http://www.w3.org/1999/xlink" width="116" height="116" viewBox="0 0 116 116">
  <defs>
    <filter id="Ellipse_102" x="0" y="0" width="116" height="116" filterUnits="userSpaceOnUse">
      <feOffset dy="1" input="SourceAlpha"/>
      <feGaussianBlur stdDeviation="6" result="blur"/>
      <feFlood flood-color="#2e4f8e" flood-opacity="0.122"/>
      <feComposite operator="in" in2="blur"/>
      <feComposite in="SourceGraphic"/>
    </filter>
  </defs>
  <g id="neobanking" transform="translate(18 17)">
    <g id="neobanking-2" data-name="neobanking" transform="translate(-794 -336)">
      <g transform="matrix(1, 0, 0, 1, 776, 319)" filter="url(#Ellipse_102)">
        <g id="Ellipse_102-2" data-name="Ellipse 102" transform="translate(18 17)" fill="#fff" stroke="#fff" stroke-width="5">
          <circle cx="40" cy="40" r="40" stroke="none"/>
          <circle cx="40" cy="40" r="37.5" fill="none"/>
        </g>
      </g>
      <g id="bank-solid-alerted" transform="translate(811.811 356.262)">
        <path id="Path_712" data-name="Path 712" d="M39.215,34.607H38.208V33.6a1.362,1.362,0,0,0-1.362-1.362H33.469V23.507H28.73v8.731H23.991V23.507H19.253v8.731H14.514V23.507H9.775v8.731H6.4A1.362,1.362,0,0,0,5.036,33.6v1.007H4.029A1.362,1.362,0,0,0,2.667,35.97v3.376H40.577V35.97A1.362,1.362,0,0,0,39.215,34.607Z" transform="translate(-0.005 -2.545)" fill="#0abcd0"/>
        <path id="Path_713" data-name="Path 713" d="M26.948,18.2a4.158,4.158,0,0,1-3.554-6.232l.166-.284-1.6-.924-4.668,2.7h-3.8l7.961-4.573a.948.948,0,0,1,.948,0l2.073,1.185,1.955-3.388-4.81-2.8L3.254,14.449A1.185,1.185,0,1,0,4.438,16.5l1.777-1.043v3.933h30.8V18.2Z" transform="translate(0 -0.359)" fill="#0abcd0"/>
        <path id="Path_714" data-name="Path 714" d="M34.917,1.426,28.14,13.107a1.516,1.516,0,0,0,1.3,2.369H43.008a1.516,1.516,0,0,0,1.3-2.369L37.535,1.426a1.516,1.516,0,0,0-2.618,0Z" transform="translate(-2.816 0)" fill="#e68028"/>
      </g>
    </g>
  </g>
</svg>
