<svg xmlns="http://www.w3.org/2000/svg" xmlns:xlink="http://www.w3.org/1999/xlink" width="116" height="116" viewBox="0 0 116 116">
  <defs>
    <filter id="Ellipse_98" x="0" y="0" width="116" height="116" filterUnits="userSpaceOnUse">
      <feOffset dy="1" input="SourceAlpha"/>
      <feGaussianBlur stdDeviation="6" result="blur"/>
      <feFlood flood-color="#2e4f8e" flood-opacity="0.122"/>
      <feComposite operator="in" in2="blur"/>
      <feComposite in="SourceGraphic"/>
    </filter>
  </defs>
  <g id="lending" transform="translate(-968 -182)">
    <g transform="matrix(1, 0, 0, 1, 968, 182)" filter="url(#Ellipse_98)">
      <g id="Ellipse_98-2" data-name="Ellipse 98" transform="translate(18 17)" fill="#fff" stroke="#fff" stroke-width="5">
        <circle cx="40" cy="40" r="40" stroke="none"/>
        <circle cx="40" cy="40" r="37.5" fill="none"/>
      </g>
    </g>
    <g id="coin-bag-solid" transform="translate(1001.336 213.667)">
      <path id="Path_700" data-name="Path 700" d="M33.187,34.667h10.48c-.88-11.613-5.88-18.827-12.293-23.093L34.293,5.2A1.333,1.333,0,0,0,33.08,3.333H14.8A1.333,1.333,0,0,0,13.587,5.2l1.6,3.467H28.68l-1.2,2.667H25.013a33.2,33.2,0,0,1,1.653,6.253,32.654,32.654,0,0,1,.427,4l-2.107,1.48a30.053,30.053,0,0,0-.427-5.147,28.987,28.987,0,0,0-1.893-6.587H21.333a37.627,37.627,0,0,0-3.307,4.933A31.88,31.88,0,0,0,16.04,20.88l-1.827-1.213a30.373,30.373,0,0,1,1.96-4.453,41.079,41.079,0,0,1,2.56-3.88H16.4l.107.227C9.44,16.267,4.067,24.533,4.067,38.333a2.2,2.2,0,0,0,2.08,2.333H16.813a3.56,3.56,0,0,1,2.133-6,3.56,3.56,0,0,1-.493-1.787,3.6,3.6,0,0,1,3.6-3.6h8a3.6,3.6,0,0,1,3.6,3.6A3.507,3.507,0,0,1,33.187,34.667Z" fill="#0abcd0"/>
      <path id="Path_701" data-name="Path 701" d="M28.8,38a1.333,1.333,0,0,0-1.333-1.333h-8a1.333,1.333,0,1,0,0,2.667h8A1.333,1.333,0,0,0,28.8,38Z" fill="#e68028"/>
      <path id="Path_702" data-name="Path 702" d="M30.053,31.333h-8a1.333,1.333,0,1,0,0,2.667h8a1.333,1.333,0,1,0,0-2.667Z" fill="#e68028"/>
      <path id="Path_703" data-name="Path 703" d="M29.333,42h-8a1.333,1.333,0,1,0,0,2.667h8a1.333,1.333,0,1,0,0-2.667Z" fill="#e68028"/>
      <path id="Path_704" data-name="Path 704" d="M43.6,42H34.267a1.333,1.333,0,0,0,0,2.667H43.6A1.333,1.333,0,1,0,43.6,42Z" fill="#e68028"/>
      <path id="Path_705" data-name="Path 705" d="M44.933,36.667H35.6a1.333,1.333,0,1,0,0,2.667h9.333a1.333,1.333,0,0,0,0-2.667Z" fill="#e68028"/>
    </g>
  </g>
</svg>
