<svg xmlns="http://www.w3.org/2000/svg" xmlns:xlink="http://www.w3.org/1999/xlink" width="1252" height="444" viewBox="0 0 1252 444">
  <defs>
    <filter id="Rectangle_45" x="986" y="37" width="238" height="126" filterUnits="userSpaceOnUse">
      <feOffset dy="3" input="SourceAlpha"/>
      <feGaussianBlur stdDeviation="7.5" result="blur"/>
      <feFlood flood-color="#3a505c" flood-opacity="0.122"/>
      <feComposite operator="in" in2="blur"/>
      <feComposite in="SourceGraphic"/>
    </filter>
    <filter id="Rectangle_46" x="1014" y="139" width="238" height="126" filterUnits="userSpaceOnUse">
      <feOffset dy="3" input="SourceAlpha"/>
      <feGaussianBlur stdDeviation="7.5" result="blur-2"/>
      <feFlood flood-color="#3a505c" flood-opacity="0.122"/>
      <feComposite operator="in" in2="blur-2"/>
      <feComposite in="SourceGraphic"/>
    </filter>
    <filter id="Rectangle_47" x="986" y="242" width="238" height="126" filterUnits="userSpaceOnUse">
      <feOffset dy="3" input="SourceAlpha"/>
      <feGaussianBlur stdDeviation="7.5" result="blur-3"/>
      <feFlood flood-color="#3a505c" flood-opacity="0.122"/>
      <feComposite operator="in" in2="blur-3"/>
      <feComposite in="SourceGraphic"/>
    </filter>
    <filter id="Rectangle_45-2" x="48" y="0" width="238" height="126" filterUnits="userSpaceOnUse">
      <feOffset dy="3" input="SourceAlpha"/>
      <feGaussianBlur stdDeviation="7.5" result="blur-4"/>
      <feFlood flood-color="#3a505c" flood-opacity="0.122"/>
      <feComposite operator="in" in2="blur-4"/>
      <feComposite in="SourceGraphic"/>
    </filter>
    <filter id="Rectangle_46-2" x="0" y="105" width="238" height="126" filterUnits="userSpaceOnUse">
      <feOffset dy="3" input="SourceAlpha"/>
      <feGaussianBlur stdDeviation="7.5" result="blur-5"/>
      <feFlood flood-color="#3a505c" flood-opacity="0.122"/>
      <feComposite operator="in" in2="blur-5"/>
      <feComposite in="SourceGraphic"/>
    </filter>
    <filter id="Rectangle_47-2" x="32" y="213" width="238" height="126" filterUnits="userSpaceOnUse">
      <feOffset dy="3" input="SourceAlpha"/>
      <feGaussianBlur stdDeviation="7.5" result="blur-6"/>
      <feFlood flood-color="#3a505c" flood-opacity="0.122"/>
      <feComposite operator="in" in2="blur-6"/>
      <feComposite in="SourceGraphic"/>
    </filter>
    <filter id="Rectangle_47-3" x="56" y="318" width="238" height="126" filterUnits="userSpaceOnUse">
      <feOffset dy="3" input="SourceAlpha"/>
      <feGaussianBlur stdDeviation="7.5" result="blur-7"/>
      <feFlood flood-color="#3a505c" flood-opacity="0.122"/>
      <feComposite operator="in" in2="blur-7"/>
      <feComposite in="SourceGraphic"/>
    </filter>
    <filter id="Ellipse_66" x="364.5" y="111.5" width="180" height="179" filterUnits="userSpaceOnUse">
      <feOffset dy="3" input="SourceAlpha"/>
      <feGaussianBlur stdDeviation="10" result="blur-8"/>
      <feFlood flood-color="#38494b" flood-opacity="0.098"/>
      <feComposite operator="in" in2="blur-8"/>
      <feComposite in="SourceGraphic"/>
    </filter>
    <filter id="Ellipse_67" x="532.5" y="111.5" width="180" height="179" filterUnits="userSpaceOnUse">
      <feOffset dy="3" input="SourceAlpha"/>
      <feGaussianBlur stdDeviation="10" result="blur-9"/>
      <feFlood flood-color="#134d7e" flood-opacity="0.102"/>
      <feComposite operator="in" in2="blur-9"/>
      <feComposite in="SourceGraphic"/>
    </filter>
    <filter id="Ellipse_68" x="700.5" y="111.5" width="179" height="179" filterUnits="userSpaceOnUse">
      <feOffset dy="3" input="SourceAlpha"/>
      <feGaussianBlur stdDeviation="10" result="blur-10"/>
      <feFlood flood-color="#637184" flood-opacity="0.102"/>
      <feComposite operator="in" in2="blur-10"/>
      <feComposite in="SourceGraphic"/>
    </filter>
  </defs>
  <g id="infographic-iserveu" transform="translate(-124.5 -2401.5)">
    <rect id="Rectangle_41" data-name="Rectangle 41" width="352" height="10" rx="5" transform="translate(567 2593)" fill="#d4e9ee"/>
    <path id="Subtraction_2" data-name="Subtraction 2" d="M781,385H475a29.977,29.977,0,0,1-30-30v-6h4v5a27.977,27.977,0,0,0,28,28H779a27.977,27.977,0,0,0,28-28v-5h4v6a29.976,29.976,0,0,1-30,30ZM449,145h-4V135a29.974,29.974,0,0,1,30-30H781a29.973,29.973,0,0,1,30,30v10h-4v-9a27.978,27.978,0,0,0-28-28H477a27.977,27.977,0,0,0-28,28v9Z" transform="translate(115 2375)" fill="#0abcd0"/>
    <g id="Group_296" data-name="Group 296" transform="translate(-3 -56)">
      <g id="Group_292" data-name="Group 292">
        <path id="Path_695" data-name="Path 695" d="M0,63A948.056,948.056,0,0,0,126.384,41.807C192.2,25.825,157.325-23.845,215.85-32.815" transform="translate(892 2593.815)" fill="none" stroke="#d4e9ee" stroke-linecap="round" stroke-width="10"/>
        <circle id="Ellipse_85" data-name="Ellipse 85" cx="5" cy="5" r="5" transform="translate(1048 2613)" fill="#0abcd0"/>
      </g>
      <g id="Group_293" data-name="Group 293" transform="translate(892 2651)">
        <path id="Path_695-2" data-name="Path 695" d="M0-32.815A948.056,948.056,0,0,1,126.384-11.622C192.2,4.36,157.325,54.03,215.85,63" transform="translate(0 32.815)" fill="none" stroke="#d4e9ee" stroke-linecap="round" stroke-width="10"/>
        <circle id="Ellipse_85-2" data-name="Ellipse 85" cx="5" cy="5" r="5" transform="translate(156 33.815)" fill="#0abcd0"/>
      </g>
      <g id="Group_294" data-name="Group 294" transform="translate(892 2651)">
        <path id="Path_695-3" data-name="Path 695" d="M0-32.815s45.116-3.146,112.076,0,77.347.672,131.924,3.482" transform="translate(0 32.815)" fill="none" stroke="#d4e9ee" stroke-linecap="round" stroke-width="10"/>
        <circle id="Ellipse_85-3" data-name="Ellipse 85" cx="4.5" cy="4.5" r="4.5" transform="translate(205.601 -2.185)" fill="#0abcd0"/>
      </g>
      <g transform="matrix(1, 0, 0, 1, 127.5, 2457.5)" filter="url(#Rectangle_45)">
        <rect id="Rectangle_45-3" data-name="Rectangle 45" width="193" height="81" rx="10" transform="translate(1008.5 56.5)" fill="#fff"/>
      </g>
      <g transform="matrix(1, 0, 0, 1, 127.5, 2457.5)" filter="url(#Rectangle_46)">
        <rect id="Rectangle_46-3" data-name="Rectangle 46" width="193" height="81" rx="10" transform="translate(1036.5 158.5)" fill="#fff"/>
      </g>
      <g transform="matrix(1, 0, 0, 1, 127.5, 2457.5)" filter="url(#Rectangle_47)">
        <rect id="Rectangle_47-4" data-name="Rectangle 47" width="193" height="81" rx="10" transform="translate(1008.5 261.5)" fill="#fff"/>
      </g>
      <path id="Intersection_16" data-name="Intersection 16" d="M493.92,301.716l2.16-4.968-4-9.72h2.826l2.574,6.966,2.61-6.966h2.682L496.6,301.716Zm34.65-4.995a3.883,3.883,0,0,1-1.539-1.2,3.033,3.033,0,0,1-.621-1.674h2.538a1.38,1.38,0,0,0,.567.954,1.972,1.972,0,0,0,1.233.378,1.917,1.917,0,0,0,1.125-.288.872.872,0,0,0,.405-.738.778.778,0,0,0-.495-.729,9.3,9.3,0,0,0-1.575-.531,13.387,13.387,0,0,1-1.827-.558,3.167,3.167,0,0,1-1.224-.882,2.367,2.367,0,0,1-.513-1.6,2.588,2.588,0,0,1,.477-1.512,3.2,3.2,0,0,1,1.368-1.08,5.135,5.135,0,0,1,2.1-.4,4.282,4.282,0,0,1,2.844.891,3.3,3.3,0,0,1,1.17,2.4h-2.412a1.3,1.3,0,0,0-.495-.945,2.232,2.232,0,0,0-2.232-.1.8.8,0,0,0-.369.7.825.825,0,0,0,.5.765,7.832,7.832,0,0,0,1.566.531,13.339,13.339,0,0,1,1.782.558,3.142,3.142,0,0,1,1.215.891,2.446,2.446,0,0,1,.531,1.593,2.644,2.644,0,0,1-.477,1.548,3.14,3.14,0,0,1-1.368,1.071,5.178,5.178,0,0,1-2.079.387A5.252,5.252,0,0,1,528.57,296.721Zm-10.728-.2a4.5,4.5,0,0,1-1.746-1.8,6.139,6.139,0,0,1,0-5.418,4.5,4.5,0,0,1,1.746-1.8,5.055,5.055,0,0,1,2.556-.639,4.913,4.913,0,0,1,3.069.927,4.512,4.512,0,0,1,1.629,2.6h-2.718a1.986,1.986,0,0,0-.729-1.017,2.118,2.118,0,0,0-1.269-.369,2.079,2.079,0,0,0-1.71.783,4.206,4.206,0,0,0,0,4.428,2.079,2.079,0,0,0,1.71.783,1.912,1.912,0,0,0,2-1.368H525.1a4.6,4.6,0,0,1-1.638,2.574,4.826,4.826,0,0,1-3.06.954A5.055,5.055,0,0,1,517.842,296.523Zm-40.221-.009a4.537,4.537,0,0,1-1.638-1.827,5.864,5.864,0,0,1-.6-2.709,5.769,5.769,0,0,1,.6-2.682,4.42,4.42,0,0,1,1.638-1.8,4.358,4.358,0,0,1,2.313-.63,4.066,4.066,0,0,1,1.953.45,3.953,3.953,0,0,1,1.341,1.134v-1.422h2.538V297h-2.538v-1.458a3.75,3.75,0,0,1-1.341,1.161,4.1,4.1,0,0,1-1.971.459A4.239,4.239,0,0,1,477.621,296.514Zm1.665-7.092a2.569,2.569,0,0,0-.963,1,3.133,3.133,0,0,0-.369,1.557,3.235,3.235,0,0,0,.369,1.575,2.655,2.655,0,0,0,.972,1.035,2.466,2.466,0,0,0,1.287.36,2.6,2.6,0,0,0,1.314-.351,2.54,2.54,0,0,0,.972-1.008,3.625,3.625,0,0,0,0-3.15,2.54,2.54,0,0,0-.972-1.008,2.6,2.6,0,0,0-1.314-.351A2.555,2.555,0,0,0,479.286,289.422ZM511.11,297v-9.972h2.52V297Zm-3.4,0q-3.186,0-3.186-3.1V289.1h-1.188v-2.07h1.188v-2.466h2.538v2.466h2.232v2.07H507.06v4.824a.954.954,0,0,0,.243.729,1.192,1.192,0,0,0,.819.225h1.17V297Zm-19.476,0V283.68h2.52V297Zm-17.118,0v-5.508a2.585,2.585,0,0,0-.594-1.827,2.1,2.1,0,0,0-1.62-.639,2.158,2.158,0,0,0-1.647.639,2.559,2.559,0,0,0-.6,1.827V297h-2.52v-9.972h2.52v1.242a3.476,3.476,0,0,1,1.287-1.017,3.986,3.986,0,0,1,1.719-.369,3.844,3.844,0,0,1,2.88,1.125,4.308,4.308,0,0,1,1.1,3.141V297Zm-11.34,0-.828-2.394h-5L453.114,297h-2.646l4.518-12.582h2.934L462.438,297Zm-5.148-4.41h3.636l-1.818-5.256Zm56.655-7.173a1.478,1.478,0,0,1,0-2.106,1.66,1.66,0,0,1,2.214,0,1.478,1.478,0,0,1,0,2.106,1.66,1.66,0,0,1-2.214,0ZM473.7,278.739a3.745,3.745,0,0,1-1.629-1.35,3.591,3.591,0,0,1-.576-2.025,3.765,3.765,0,0,1,.7-2.232,4.924,4.924,0,0,1,2.07-1.6,4.358,4.358,0,0,1-.7-1.143,3.191,3.191,0,0,1-.216-1.179,2.8,2.8,0,0,1,.45-1.557,3.036,3.036,0,0,1,1.287-1.089,4.525,4.525,0,0,1,1.953-.4,4.08,4.08,0,0,1,1.944.432,2.806,2.806,0,0,1,1.548,2.754H478.08a1.2,1.2,0,0,0-.288-.909,1.1,1.1,0,0,0-.828-.315,1.212,1.212,0,0,0-.837.3.977.977,0,0,0-.333.765,1.692,1.692,0,0,0,.27.891,7.137,7.137,0,0,0,.882,1.089l3.168,3.132a.269.269,0,0,0,.054-.072l.036-.072,1.026-1.71h2.628l-1.26,2.214a14.377,14.377,0,0,1-.774,1.332L484.866,279h-3.1l-1.368-1.35a6.159,6.159,0,0,1-4.266,1.566A5.862,5.862,0,0,1,473.7,278.739Zm.279-3.519a1.754,1.754,0,0,0,.612,1.359,2.332,2.332,0,0,0,1.62.549,3.742,3.742,0,0,0,2.61-1.044l-3.1-3.06A2.426,2.426,0,0,0,473.976,275.22ZM484.866,279Zm-22.05,0V266.436h2.52V279Zm-11.574,0V266.436h5.184a5.371,5.371,0,0,1,2.2.414,3.136,3.136,0,0,1,1.4,1.152,3.02,3.02,0,0,1,.477,1.674,2.866,2.866,0,0,1-.585,1.836,3.128,3.128,0,0,1-1.557,1.044,2.825,2.825,0,0,1,1.746,1.062,3.1,3.1,0,0,1,.684,1.98,3.188,3.188,0,0,1-.495,1.773,3.3,3.3,0,0,1-1.431,1.2,5.241,5.241,0,0,1-2.214.432Zm2.52-2.052H456.3a2.157,2.157,0,0,0,1.431-.432,1.511,1.511,0,0,0,.513-1.224,1.576,1.576,0,0,0-.54-1.269,2.177,2.177,0,0,0-1.458-.459h-2.484Zm0-5.328h2.3a2.109,2.109,0,0,0,1.386-.4,1.426,1.426,0,0,0,.486-1.161,1.453,1.453,0,0,0-.486-1.17,2.075,2.075,0,0,0-1.386-.414h-2.3Z" transform="translate(761 2273)" fill="#0abcd0" stroke="rgba(0,0,0,0)" stroke-miterlimit="10" stroke-width="1"/>
      <g id="Group_291" data-name="Group 291" transform="translate(-23.887 16.113)">
        <g id="Group_335" data-name="Group 335" transform="translate(1175.887 2516.887)">
          <path id="Path_740" data-name="Path 740" d="M0,0H42.222V42.222H0Z" fill="none"/>
          <path id="Path_741" data-name="Path 741" d="M2,17.26H12.555V31.334H2Zm24.629-8.8H37.185v22.87H26.629ZM5.518,20.778v7.037H9.037V20.778Zm24.629-8.8V27.815h3.518V11.982Z" transform="translate(1.518 5.61)" fill="#0abcd0"/>
          <g id="Rectangle_59" data-name="Rectangle 59" transform="translate(16.109 8.109)" fill="none" stroke="#e68028" stroke-width="3">
            <rect width="10" height="29" stroke="none"/>
            <rect x="1.5" y="1.5" width="7" height="26" fill="none"/>
          </g>
        </g>
      </g>
      <path id="Intersection_17" data-name="Intersection 17" d="M524.475,302.924a3.667,3.667,0,0,1-1.539-2.7h2.5a1.862,1.862,0,0,0,.855,1.089,2.98,2.98,0,0,0,1.593.4,2.465,2.465,0,0,0,1.782-.657,2.636,2.636,0,0,0,.684-1.989v-1.548a3.824,3.824,0,0,1-1.341,1.17,4,4,0,0,1-1.953.468,4.283,4.283,0,0,1-2.3-.648,4.513,4.513,0,0,1-1.647-1.827,5.861,5.861,0,0,1-.6-2.709,5.769,5.769,0,0,1,.6-2.682,4.426,4.426,0,0,1,1.638-1.8,4.366,4.366,0,0,1,2.313-.63,4.193,4.193,0,0,1,1.962.441,3.613,3.613,0,0,1,1.332,1.143v-1.422h2.538v10.044a5.351,5.351,0,0,1-.558,2.475,4.136,4.136,0,0,1-1.674,1.728,5.347,5.347,0,0,1-2.7.639A5.764,5.764,0,0,1,524.475,302.924Zm1.935-11.5a2.581,2.581,0,0,0-.963,1,3.135,3.135,0,0,0-.369,1.557,3.235,3.235,0,0,0,.369,1.575,2.648,2.648,0,0,0,.972,1.035,2.466,2.466,0,0,0,1.287.36,2.6,2.6,0,0,0,1.314-.351,2.54,2.54,0,0,0,.972-1.008,3.625,3.625,0,0,0,0-3.15,2.546,2.546,0,0,0-.972-1.008,2.6,2.6,0,0,0-1.314-.351A2.555,2.555,0,0,0,526.41,291.422Zm-29.268,7.1a4.5,4.5,0,0,1-1.746-1.8,6.139,6.139,0,0,1,0-5.418,4.507,4.507,0,0,1,1.746-1.8,5.055,5.055,0,0,1,2.556-.639,4.918,4.918,0,0,1,3.069.927,4.511,4.511,0,0,1,1.629,2.6h-2.718a1.99,1.99,0,0,0-.729-1.017,2.118,2.118,0,0,0-1.269-.369,2.079,2.079,0,0,0-1.71.783,4.205,4.205,0,0,0,0,4.428,2.079,2.079,0,0,0,1.71.783,1.911,1.911,0,0,0,2-1.368H504.4a4.6,4.6,0,0,1-1.638,2.574,4.826,4.826,0,0,1-3.06.954A5.046,5.046,0,0,1,497.142,298.523Zm-16.38,0a4.6,4.6,0,0,1-1.809-1.809,5.414,5.414,0,0,1-.657-2.7,5.307,5.307,0,0,1,.675-2.7,4.7,4.7,0,0,1,1.845-1.809,5.65,5.65,0,0,1,5.22,0,4.7,4.7,0,0,1,1.845,1.809,5.307,5.307,0,0,1,.675,2.7,5.2,5.2,0,0,1-.693,2.7,4.8,4.8,0,0,1-1.872,1.809,5.436,5.436,0,0,1-2.637.639A5.244,5.244,0,0,1,480.762,298.523Zm.819-6.7a3.048,3.048,0,0,0-.729,2.187,3.092,3.092,0,0,0,.711,2.187,2.34,2.34,0,0,0,1.791.765,2.618,2.618,0,0,0,1.287-.333,2.413,2.413,0,0,0,.963-1,3.362,3.362,0,0,0,.36-1.62,3,3,0,0,0-.747-2.187,2.457,2.457,0,0,0-1.827-.765A2.4,2.4,0,0,0,481.581,291.827ZM518.238,299v-5.508a2.587,2.587,0,0,0-.594-1.827,2.105,2.105,0,0,0-1.62-.639,2.158,2.158,0,0,0-1.647.639,2.561,2.561,0,0,0-.6,1.827V299h-2.52v-9.972h2.52v1.242a3.485,3.485,0,0,1,1.287-1.017,3.986,3.986,0,0,1,1.719-.369,3.844,3.844,0,0,1,2.88,1.125,4.31,4.31,0,0,1,1.1,3.141V299Zm-11.988,0v-9.972h2.52V299Zm-15.84,0v-9.972h2.52V299Zm-19.656,0-3.672-9.972h2.7l2.52,7.65,2.52-7.65H477.5L473.814,299Zm-7.524,0v-5.508a2.587,2.587,0,0,0-.594-1.827,2.1,2.1,0,0,0-1.62-.639,2.158,2.158,0,0,0-1.647.639,2.561,2.561,0,0,0-.6,1.827V299h-2.52v-9.972h2.52v1.242a3.485,3.485,0,0,1,1.287-1.017,3.987,3.987,0,0,1,1.719-.369,3.844,3.844,0,0,1,2.88,1.125,4.31,4.31,0,0,1,1.1,3.141V299Zm-11.988,0V286.436h2.52V299Zm55.179-11.583a1.478,1.478,0,0,1,0-2.106,1.66,1.66,0,0,1,2.214,0,1.478,1.478,0,0,1,0,2.106,1.66,1.66,0,0,1-2.214,0Zm-15.84,0a1.478,1.478,0,0,1,0-2.106,1.66,1.66,0,0,1,2.214,0,1.478,1.478,0,0,1,0,2.106,1.66,1.66,0,0,1-2.214,0Zm23.4-8.678a3.745,3.745,0,0,1-1.629-1.35,3.591,3.591,0,0,1-.576-2.025,3.765,3.765,0,0,1,.7-2.232,4.923,4.923,0,0,1,2.07-1.6,4.356,4.356,0,0,1-.7-1.143,3.191,3.191,0,0,1-.216-1.179,2.8,2.8,0,0,1,.45-1.557,3.036,3.036,0,0,1,1.287-1.089,4.525,4.525,0,0,1,1.953-.4,4.08,4.08,0,0,1,1.944.432,2.806,2.806,0,0,1,1.548,2.754h-2.448a1.2,1.2,0,0,0-.288-.909,1.1,1.1,0,0,0-.828-.315,1.212,1.212,0,0,0-.837.3.977.977,0,0,0-.333.765,1.692,1.692,0,0,0,.27.891,7.137,7.137,0,0,0,.882,1.089L520.4,274.3a.269.269,0,0,0,.054-.072l.036-.072,1.026-1.71h2.628l-1.26,2.214a14.37,14.37,0,0,1-.774,1.332L525.15,279h-3.1l-1.368-1.35a6.159,6.159,0,0,1-4.266,1.566A5.862,5.862,0,0,1,513.981,278.739Zm.279-3.519a1.754,1.754,0,0,0,.612,1.359,2.332,2.332,0,0,0,1.62.549,3.742,3.742,0,0,0,2.61-1.044l-3.1-3.06A2.426,2.426,0,0,0,514.26,275.22Zm-27.7,3.3a4.6,4.6,0,0,1-1.809-1.809,5.419,5.419,0,0,1-.657-2.7,5.307,5.307,0,0,1,.675-2.7,4.685,4.685,0,0,1,1.845-1.809,5.65,5.65,0,0,1,5.22,0,4.684,4.684,0,0,1,1.845,1.809,5.307,5.307,0,0,1,.675,2.7,5.2,5.2,0,0,1-.693,2.7,4.8,4.8,0,0,1-1.872,1.809,5.446,5.446,0,0,1-2.637.639A5.254,5.254,0,0,1,486.558,278.523Zm.819-6.7a3.048,3.048,0,0,0-.729,2.187,3.1,3.1,0,0,0,.711,2.187,2.341,2.341,0,0,0,1.791.765,2.618,2.618,0,0,0,1.287-.333,2.424,2.424,0,0,0,.963-1,3.361,3.361,0,0,0,.36-1.62,3,3,0,0,0-.747-2.187,2.454,2.454,0,0,0-1.827-.765A2.4,2.4,0,0,0,487.377,271.827Zm-11.763,6.7a4.5,4.5,0,0,1-1.746-1.8,6.139,6.139,0,0,1,0-5.418,4.5,4.5,0,0,1,1.746-1.8,5.055,5.055,0,0,1,2.556-.639,4.913,4.913,0,0,1,3.069.927,4.512,4.512,0,0,1,1.629,2.6H480.15a1.987,1.987,0,0,0-.729-1.017,2.119,2.119,0,0,0-1.269-.369,2.079,2.079,0,0,0-1.71.783,4.205,4.205,0,0,0,0,4.428,2.079,2.079,0,0,0,1.71.783,1.912,1.912,0,0,0,2-1.368h2.718a4.6,4.6,0,0,1-1.638,2.574,4.826,4.826,0,0,1-3.06.954A5.055,5.055,0,0,1,475.614,278.523Zm-11.061,0a4.49,4.49,0,0,1-1.782-1.809,5.548,5.548,0,0,1-.639-2.7,5.642,5.642,0,0,1,.63-2.718,4.4,4.4,0,0,1,1.764-1.8,5.664,5.664,0,0,1,5.157-.018,4.309,4.309,0,0,1,1.746,1.737,5.256,5.256,0,0,1,.621,2.583,5.978,5.978,0,0,1-.072.972h-7.29a2.481,2.481,0,0,0,.756,1.692,2.332,2.332,0,0,0,1.638.612,2.058,2.058,0,0,0,2-1.206H471.8a4.541,4.541,0,0,1-1.656,2.367,4.833,4.833,0,0,1-3.006.927A5.205,5.205,0,0,1,464.553,278.523Zm.936-7.02a2.5,2.5,0,0,0-.783,1.575h4.734a2,2,0,0,0-.7-1.557,2.49,2.49,0,0,0-1.674-.585A2.287,2.287,0,0,0,465.489,271.5ZM525.15,279Zm-21.96,0v-5.508a2.585,2.585,0,0,0-.594-1.827,2.1,2.1,0,0,0-1.62-.639,2.158,2.158,0,0,0-1.647.639,2.559,2.559,0,0,0-.6,1.827V279h-2.52v-9.972h2.52v1.242a3.476,3.476,0,0,1,1.287-1.017,3.986,3.986,0,0,1,1.719-.369,3.844,3.844,0,0,1,2.88,1.125,4.308,4.308,0,0,1,1.1,3.141V279Zm-45.468,0-2.772-4.9h-1.188V279h-2.52V266.436h4.716a5.507,5.507,0,0,1,2.484.513,3.582,3.582,0,0,1,1.539,1.386,3.784,3.784,0,0,1,.513,1.953,3.743,3.743,0,0,1-.72,2.241,3.7,3.7,0,0,1-2.142,1.377L460.638,279Zm-3.96-6.786h2.106a2.1,2.1,0,0,0,1.53-.5,1.844,1.844,0,0,0,.5-1.377,1.758,1.758,0,0,0-.5-1.341,2.156,2.156,0,0,0-1.53-.477h-2.106Z" transform="translate(790 2375)" fill="#0abcd0" stroke="rgba(0,0,0,0)" stroke-miterlimit="10" stroke-width="1"/>
      <g id="Group_295" data-name="Group 295" transform="translate(-25.714 2.101)">
        <g id="Group_336" data-name="Group 336" transform="translate(1204.928 2633.928)">
          <path id="Path_742" data-name="Path 742" d="M0,0H41.572V41.572H0Z" fill="none"/>
          <path id="Path_743" data-name="Path 743" d="M6.464,12.393V33.179h24.25V12.393Zm0-3.464h24.25V5.464H6.464ZM32.447,36.644H4.732A1.732,1.732,0,0,1,3,34.911V3.732A1.732,1.732,0,0,1,4.732,2H32.447a1.732,1.732,0,0,1,1.732,1.732V34.911A1.732,1.732,0,0,1,32.447,36.644ZM20.322,17.59H27.25v3.464H20.322Z" transform="translate(2.197 1.464)" fill="#0abcd0"/>
          <rect id="Rectangle_60" data-name="Rectangle 60" width="9" height="4" transform="translate(10.786 18.971)" fill="#e68028"/>
          <rect id="Rectangle_61" data-name="Rectangle 61" width="19" height="5" transform="translate(10.786 25.971)" fill="#e68028"/>
        </g>
      </g>
      <path id="Intersection_18" data-name="Intersection 18" d="M474.039,302.924a3.667,3.667,0,0,1-1.539-2.7H475a1.862,1.862,0,0,0,.855,1.089,2.98,2.98,0,0,0,1.593.4,2.465,2.465,0,0,0,1.782-.657,2.636,2.636,0,0,0,.684-1.989v-1.548a3.825,3.825,0,0,1-1.341,1.17,4,4,0,0,1-1.953.468,4.283,4.283,0,0,1-2.3-.648,4.512,4.512,0,0,1-1.647-1.827,5.861,5.861,0,0,1-.6-2.709,5.769,5.769,0,0,1,.6-2.682,4.425,4.425,0,0,1,1.638-1.8,4.366,4.366,0,0,1,2.313-.63,4.193,4.193,0,0,1,1.962.441,3.613,3.613,0,0,1,1.332,1.143v-1.422h2.538v10.044a5.351,5.351,0,0,1-.558,2.475,4.136,4.136,0,0,1-1.674,1.728,5.347,5.347,0,0,1-2.7.639A5.765,5.765,0,0,1,474.039,302.924Zm1.935-11.5a2.581,2.581,0,0,0-.963,1,3.135,3.135,0,0,0-.369,1.557,3.235,3.235,0,0,0,.369,1.575,2.648,2.648,0,0,0,.972,1.035,2.467,2.467,0,0,0,1.287.36,2.6,2.6,0,0,0,1.314-.351,2.54,2.54,0,0,0,.972-1.008,3.625,3.625,0,0,0,0-3.15,2.546,2.546,0,0,0-.972-1.008,2.6,2.6,0,0,0-1.314-.351A2.555,2.555,0,0,0,475.974,291.422Zm27.621,7.1a4.49,4.49,0,0,1-1.782-1.809,5.543,5.543,0,0,1-.639-2.7,5.645,5.645,0,0,1,.63-2.718,4.4,4.4,0,0,1,1.764-1.8,5.664,5.664,0,0,1,5.157-.018,4.315,4.315,0,0,1,1.746,1.737,5.258,5.258,0,0,1,.621,2.583,5.981,5.981,0,0,1-.072.972h-7.29a2.481,2.481,0,0,0,.756,1.692,2.328,2.328,0,0,0,1.638.612,2.057,2.057,0,0,0,2-1.206h2.718a4.537,4.537,0,0,1-1.656,2.367,4.833,4.833,0,0,1-3.006.927A5.2,5.2,0,0,1,503.6,298.523Zm.936-7.02a2.5,2.5,0,0,0-.783,1.575h4.734a2,2,0,0,0-.7-1.557,2.489,2.489,0,0,0-1.674-.585A2.288,2.288,0,0,0,504.531,291.5Zm-7.623,7.5v-5.508a2.587,2.587,0,0,0-.594-1.827,2.1,2.1,0,0,0-1.62-.639,2.158,2.158,0,0,0-1.647.639,2.561,2.561,0,0,0-.6,1.827V299h-2.52v-9.972h2.52v1.242a3.485,3.485,0,0,1,1.287-1.017,3.987,3.987,0,0,1,1.719-.369,3.844,3.844,0,0,1,2.88,1.125,4.31,4.31,0,0,1,1.1,3.141V299Zm-11.988,0v-9.972h2.52V299ZM467.8,299v-5.508a2.587,2.587,0,0,0-.594-1.827,2.1,2.1,0,0,0-1.62-.639,2.158,2.158,0,0,0-1.647.639,2.561,2.561,0,0,0-.6,1.827V299h-2.52v-9.972h2.52v1.242a3.485,3.485,0,0,1,1.287-1.017,3.987,3.987,0,0,1,1.719-.369,3.844,3.844,0,0,1,2.88,1.125,4.31,4.31,0,0,1,1.1,3.141V299Zm-16.56,0V286.418h7.29v2.052h-4.77v3.15h4.23v2h-4.23v3.33h4.77V299Zm33.849-11.583a1.478,1.478,0,0,1,0-2.106,1.66,1.66,0,0,1,2.214,0,1.478,1.478,0,0,1,0,2.106,1.66,1.66,0,0,1-2.214,0Zm50.931-8.894a4.6,4.6,0,0,1-1.809-1.809,5.419,5.419,0,0,1-.657-2.7,5.307,5.307,0,0,1,.675-2.7,4.685,4.685,0,0,1,1.845-1.809,5.65,5.65,0,0,1,5.22,0,4.684,4.684,0,0,1,1.845,1.809,5.307,5.307,0,0,1,.675,2.7,5.2,5.2,0,0,1-.693,2.7,4.794,4.794,0,0,1-1.872,1.809,5.446,5.446,0,0,1-2.637.639A5.254,5.254,0,0,1,536.022,278.523Zm.819-6.7a3.048,3.048,0,0,0-.729,2.187,3.1,3.1,0,0,0,.711,2.187,2.341,2.341,0,0,0,1.791.765,2.618,2.618,0,0,0,1.287-.333,2.424,2.424,0,0,0,.963-1,3.361,3.361,0,0,0,.36-1.62,3,3,0,0,0-.747-2.187,2.454,2.454,0,0,0-1.827-.765A2.4,2.4,0,0,0,536.841,271.827Zm-25.254,6.687a4.537,4.537,0,0,1-1.638-1.827,5.864,5.864,0,0,1-.6-2.709,5.769,5.769,0,0,1,.6-2.682,4.42,4.42,0,0,1,1.638-1.8,4.358,4.358,0,0,1,2.313-.63,4.066,4.066,0,0,1,1.953.45,3.953,3.953,0,0,1,1.341,1.134v-1.422h2.538V279h-2.538v-1.458a3.751,3.751,0,0,1-1.341,1.161,4.1,4.1,0,0,1-1.971.459A4.239,4.239,0,0,1,511.587,278.514Zm1.665-7.092a2.569,2.569,0,0,0-.963,1,3.133,3.133,0,0,0-.369,1.557,3.235,3.235,0,0,0,.369,1.575,2.655,2.655,0,0,0,.972,1.035,2.467,2.467,0,0,0,1.287.36,2.6,2.6,0,0,0,1.314-.351,2.54,2.54,0,0,0,.972-1.008,3.625,3.625,0,0,0,0-3.15,2.54,2.54,0,0,0-.972-1.008,2.6,2.6,0,0,0-1.314-.351A2.555,2.555,0,0,0,513.252,271.422Zm-12.366,7.1a4.5,4.5,0,0,1-1.746-1.8,6.139,6.139,0,0,1,0-5.418,4.5,4.5,0,0,1,1.746-1.8,5.055,5.055,0,0,1,2.556-.639,4.913,4.913,0,0,1,3.069.927,4.512,4.512,0,0,1,1.629,2.6h-2.718a1.987,1.987,0,0,0-.729-1.017,2.119,2.119,0,0,0-1.269-.369,2.079,2.079,0,0,0-1.71.783,4.205,4.205,0,0,0,0,4.428,2.079,2.079,0,0,0,1.71.783,1.912,1.912,0,0,0,2-1.368h2.718a4.6,4.6,0,0,1-1.638,2.574,4.826,4.826,0,0,1-3.06.954A5.055,5.055,0,0,1,500.886,278.523Zm-34.578,0a4.6,4.6,0,0,1-1.809-1.809,5.419,5.419,0,0,1-.657-2.7,5.307,5.307,0,0,1,.675-2.7,4.685,4.685,0,0,1,1.845-1.809,5.65,5.65,0,0,1,5.22,0,4.684,4.684,0,0,1,1.845,1.809,5.307,5.307,0,0,1,.675,2.7,5.2,5.2,0,0,1-.693,2.7,4.8,4.8,0,0,1-1.872,1.809,5.446,5.446,0,0,1-2.637.639A5.254,5.254,0,0,1,466.308,278.523Zm.819-6.7a3.048,3.048,0,0,0-.729,2.187,3.1,3.1,0,0,0,.711,2.187,2.341,2.341,0,0,0,1.791.765,2.618,2.618,0,0,0,1.287-.333,2.424,2.424,0,0,0,.963-1,3.361,3.361,0,0,0,.36-1.62,3,3,0,0,0-.747-2.187,2.454,2.454,0,0,0-1.827-.765A2.4,2.4,0,0,0,467.127,271.827ZM552.654,279v-5.508a2.585,2.585,0,0,0-.594-1.827,2.1,2.1,0,0,0-1.62-.639,2.158,2.158,0,0,0-1.647.639,2.559,2.559,0,0,0-.6,1.827V279h-2.52v-9.972h2.52v1.242a3.476,3.476,0,0,1,1.287-1.017,3.986,3.986,0,0,1,1.719-.369,3.844,3.844,0,0,1,2.88,1.125,4.308,4.308,0,0,1,1.1,3.141V279Zm-23.472,0v-9.972h2.52V279Zm-3.4,0q-3.186,0-3.186-3.1V271.1h-1.188v-2.07h1.188v-2.466h2.538v2.466h2.232v2.07h-2.232v4.824a.954.954,0,0,0,.243.729,1.192,1.192,0,0,0,.819.225h1.17V279Zm-31.626,0v-9.972h2.52V279Zm-5.94,0v-7.9H487.08v-2.07h1.134v-.5a3.307,3.307,0,0,1,1.044-2.7,4.664,4.664,0,0,1,3.15-.81v2.124a1.872,1.872,0,0,0-1.278.306,1.531,1.531,0,0,0-.36,1.17v.414h1.746v2.07H490.77V279Zm-5.274,0v-9.972h2.52V279Zm-3.4,0q-3.186,0-3.186-3.1V271.1h-1.188v-2.07h1.188v-2.466h2.538v2.466h2.232v2.07H478.89v4.824a.954.954,0,0,0,.243.729,1.192,1.192,0,0,0,.819.225h1.17V279Zm-20.07,0-5.706-8.622V279h-2.52V266.418h2.52l5.706,8.64v-8.64h2.52V279Zm69.885-11.583a1.478,1.478,0,0,1,0-2.106,1.66,1.66,0,0,1,2.214,0,1.478,1.478,0,0,1,0,2.106,1.66,1.66,0,0,1-2.214,0Zm-35.028,0a1.478,1.478,0,0,1,0-2.106,1.66,1.66,0,0,1,2.214,0,1.478,1.478,0,0,1,0,2.106,1.66,1.66,0,0,1-2.214,0Zm-11.214,0a1.478,1.478,0,0,1,0-2.106,1.66,1.66,0,0,1,2.214,0,1.478,1.478,0,0,1,0,2.106,1.66,1.66,0,0,1-2.214,0Z" transform="translate(758 2478)" fill="#0abcd0" stroke="rgba(0,0,0,0)" stroke-miterlimit="10" stroke-width="1"/>
      <g id="Group_297" data-name="Group 297" transform="translate(-21.616 11.964)">
        <g id="Group_259" data-name="Group 259" transform="translate(1170.843 2724.843)">
          <g id="Group_337" data-name="Group 337" transform="translate(0 0)">
            <path id="Path_744" data-name="Path 744" d="M0,0H44.594V44.594H0Z" fill="none"/>
            <path id="Path_745" data-name="Path 745" d="M30.442,16.865a11.148,11.148,0,1,0-22.3,0V31.729h22.3Zm3.716,16.1.743.99a.929.929,0,0,1-.743,1.486H4.429a.929.929,0,0,1-.743-1.486l.743-.99v-16.1a14.865,14.865,0,1,1,29.729,0Z" transform="translate(3.003 1.716)" fill="#0abcd0"/>
            <ellipse id="Ellipse_107" data-name="Ellipse 107" cx="3.5" cy="3" rx="3.5" ry="3" transform="translate(18.773 39.194)" fill="#e68028"/>
          </g>
        </g>
      </g>
    </g>
    <g id="Group_298" data-name="Group 298" transform="translate(156 2458)">
      <g id="Group_292-2" data-name="Group 292" transform="translate(249.15 47)">
        <path id="Path_695-4" data-name="Path 695" d="M215.85,63A948.056,948.056,0,0,1,89.466,41.807C23.655,25.825,67.078-48.277,8.553-57.247" transform="translate(0 32.815)" fill="none" stroke="#d4e9ee" stroke-linecap="round" stroke-width="10"/>
        <circle id="Ellipse_85-4" data-name="Ellipse 85" cx="5" cy="5" r="5" transform="translate(49.85 44)" fill="#0abcd0"/>
      </g>
      <g id="Group_293-2" data-name="Group 293" transform="translate(249.15 137)">
        <path id="Path_695-5" data-name="Path 695" d="M215.85-32.815s-54.786-4.33-120.6,11.652S49.572,21.615-8.953,30.585" transform="translate(0 32.815)" fill="none" stroke="#d4e9ee" stroke-linecap="round" stroke-width="10"/>
        <circle id="Ellipse_85-5" data-name="Ellipse 85" cx="5" cy="5" r="5" transform="translate(48.85 23.815)" fill="#0abcd0"/>
      </g>
      <g id="Group_305" data-name="Group 305" transform="translate(249.15 167)">
        <path id="Path_695-6" data-name="Path 695" d="M185.413-77.786S182.206-62.339,116.4-46.357C76.645-36.7,90.719-4.867,78.793,32.4c-2.151,31.708-35.125,47.337-66.309,79.117" transform="translate(0 32.815)" fill="none" stroke="#d4e9ee" stroke-linecap="round" stroke-width="10"/>
        <circle id="Ellipse_85-6" data-name="Ellipse 85" cx="5" cy="5" r="5" transform="translate(62.85 87.815)" fill="#0abcd0"/>
      </g>
      <g id="Group_294-2" data-name="Group 294" transform="translate(221 134.815)">
        <path id="Path_695-7" data-name="Path 695" d="M244-32.815s-45.116-3.146-112.076,0S40.326-57.174-14.251-54.364" transform="translate(0 35)" fill="none" stroke="#d4e9ee" stroke-linecap="round" stroke-width="10"/>
        <circle id="Ellipse_85-7" data-name="Ellipse 85" cx="4.5" cy="4.5" r="4.5" transform="translate(40.399 -15.599)" fill="#0abcd0"/>
      </g>
      <g id="Group_302" data-name="Group 302" transform="translate(11 -37)">
        <g transform="matrix(1, 0, 0, 1, -42.5, -19.5)" filter="url(#Rectangle_45-2)">
          <rect id="Rectangle_45-4" data-name="Rectangle 45" width="193" height="81" rx="10" transform="translate(70.5 19.5)" fill="#fff"/>
        </g>
        <path id="Intersection_9" data-name="Intersection 9" d="M365.852-2194.076a3.674,3.674,0,0,1-1.539-2.7h2.5a1.869,1.869,0,0,0,.855,1.089,2.98,2.98,0,0,0,1.593.405,2.461,2.461,0,0,0,1.782-.657,2.638,2.638,0,0,0,.684-1.989v-1.548a3.825,3.825,0,0,1-1.341,1.17,4,4,0,0,1-1.953.468,4.286,4.286,0,0,1-2.3-.648,4.52,4.52,0,0,1-1.647-1.827,5.878,5.878,0,0,1-.6-2.709,5.777,5.777,0,0,1,.6-2.682,4.427,4.427,0,0,1,1.638-1.8,4.362,4.362,0,0,1,2.313-.63,4.18,4.18,0,0,1,1.962.441,3.614,3.614,0,0,1,1.332,1.143v-1.422h2.538v10.044a5.342,5.342,0,0,1-.558,2.475,4.142,4.142,0,0,1-1.674,1.728,5.35,5.35,0,0,1-2.7.639A5.771,5.771,0,0,1,365.852-2194.076Zm1.935-11.5a2.576,2.576,0,0,0-.963,1,3.13,3.13,0,0,0-.369,1.557,3.238,3.238,0,0,0,.369,1.575,2.667,2.667,0,0,0,.972,1.035,2.476,2.476,0,0,0,1.287.36,2.6,2.6,0,0,0,1.314-.351,2.53,2.53,0,0,0,.972-1.008,3.229,3.229,0,0,0,.36-1.575,3.227,3.227,0,0,0-.36-1.575,2.527,2.527,0,0,0-.972-1.008,2.6,2.6,0,0,0-1.314-.351A2.554,2.554,0,0,0,367.787-2205.578Zm-41.166,7.1a4.514,4.514,0,0,1-1.746-1.8,5.6,5.6,0,0,1-.63-2.709,5.6,5.6,0,0,1,.63-2.709,4.508,4.508,0,0,1,1.746-1.8,5.056,5.056,0,0,1,2.556-.639,4.91,4.91,0,0,1,3.069.927,4.5,4.5,0,0,1,1.629,2.6h-2.718a1.986,1.986,0,0,0-.729-1.017,2.117,2.117,0,0,0-1.269-.369,2.078,2.078,0,0,0-1.71.783,3.468,3.468,0,0,0-.63,2.223,3.438,3.438,0,0,0,.63,2.205,2.079,2.079,0,0,0,1.71.783,1.911,1.911,0,0,0,2-1.368h2.718a4.6,4.6,0,0,1-1.638,2.574,4.83,4.83,0,0,1-3.06.954A5.059,5.059,0,0,1,326.621-2198.477Zm-37.9.153a3.892,3.892,0,0,1-1.665-1.3,3.42,3.42,0,0,1-.63-2h2.7a1.75,1.75,0,0,0,.549,1.224,1.948,1.948,0,0,0,1.359.45,2.09,2.09,0,0,0,1.386-.423,1.374,1.374,0,0,0,.5-1.107,1.276,1.276,0,0,0-.342-.918,2.386,2.386,0,0,0-.855-.567,14.318,14.318,0,0,0-1.413-.459,15.2,15.2,0,0,1-1.989-.711,3.5,3.5,0,0,1-1.314-1.062,3.03,3.03,0,0,1-.549-1.9,3.4,3.4,0,0,1,.558-1.944,3.553,3.553,0,0,1,1.566-1.269,5.691,5.691,0,0,1,2.3-.441,5,5,0,0,1,3.159.945,3.5,3.5,0,0,1,1.341,2.637h-2.772a1.438,1.438,0,0,0-.549-1.071,2.069,2.069,0,0,0-1.359-.423,1.752,1.752,0,0,0-1.179.378,1.369,1.369,0,0,0-.441,1.1,1.139,1.139,0,0,0,.333.837,2.558,2.558,0,0,0,.828.54q.5.207,1.4.477a14.658,14.658,0,0,1,2,.72,3.581,3.581,0,0,1,1.332,1.08,3,3,0,0,1,.558,1.89,3.553,3.553,0,0,1-.522,1.872,3.677,3.677,0,0,1-1.53,1.377,5.216,5.216,0,0,1-2.394.513A5.972,5.972,0,0,1,288.722-2198.324Zm70.893.324v-5.508a2.586,2.586,0,0,0-.594-1.827,2.105,2.105,0,0,0-1.62-.639,2.158,2.158,0,0,0-1.647.639,2.564,2.564,0,0,0-.6,1.827V-2198h-2.52v-9.972h2.52v1.242a3.481,3.481,0,0,1,1.287-1.017,3.985,3.985,0,0,1,1.719-.369,3.845,3.845,0,0,1,2.88,1.125,4.3,4.3,0,0,1,1.1,3.141v5.85Zm-11.988,0v-9.972h2.52V-2198Zm-4.914,0v-5.508a2.586,2.586,0,0,0-.594-1.827,2.105,2.105,0,0,0-1.62-.639,2.158,2.158,0,0,0-1.647.639,2.564,2.564,0,0,0-.6,1.827V-2198h-2.52v-13.32h2.52v4.59a3.281,3.281,0,0,1,1.3-1.017,4.3,4.3,0,0,1,1.8-.369,4.044,4.044,0,0,1,2.016.5,3.4,3.4,0,0,1,1.377,1.458,5,5,0,0,1,.495,2.313v5.85Zm-21.222,0q-3.186,0-3.186-3.1v-4.806h-1.188v-2.07H318.3v-2.466h2.538v2.466h2.232v2.07h-2.232v4.824a.954.954,0,0,0,.243.729,1.193,1.193,0,0,0,.819.225h1.17V-2198Zm-8.586,0v-9.972h2.52V-2198Zm-7,0-1.818-6.966L302.267-2198h-2.736l-2.934-9.972h2.556l1.764,7.6,1.908-7.6h2.664l1.872,7.578,1.764-7.578h2.412L308.621-2198Zm41.9-11.583a1.4,1.4,0,0,1-.441-1.053,1.4,1.4,0,0,1,.441-1.053,1.538,1.538,0,0,1,1.107-.423,1.536,1.536,0,0,1,1.107.423,1.4,1.4,0,0,1,.441,1.053,1.4,1.4,0,0,1-.441,1.053,1.536,1.536,0,0,1-1.107.423A1.538,1.538,0,0,1,347.8-2209.583Zm-34.722,0a1.4,1.4,0,0,1-.441-1.053,1.4,1.4,0,0,1,.441-1.053,1.538,1.538,0,0,1,1.107-.423,1.535,1.535,0,0,1,1.107.423,1.4,1.4,0,0,1,.441,1.053,1.4,1.4,0,0,1-.441,1.053,1.535,1.535,0,0,1-1.107.423A1.538,1.538,0,0,1,313.076-2209.583Z" transform="translate(-188 2245)" fill="#0abcd0" stroke="rgba(0,0,0,0)" stroke-miterlimit="10" stroke-width="1"/>
        <g id="aeded171678c9058b7ac3682cee39099" transform="translate(47 18.119)">
          <path id="Path_732" data-name="Path 732" d="M17.174,17.348V29.7a1.544,1.544,0,1,0,3.087,0V17.348a4.652,4.652,0,0,0-1.852-3.7l-.871-.653,5.356-5.356a1.543,1.543,0,0,0-2.183-2.183L15.044,11.12,13.47,9.939a1.544,1.544,0,1,0-1.852,2.47l4.939,3.7a1.549,1.549,0,0,1,.617,1.235Zm6.174,16.979H14.087a1.544,1.544,0,1,0,0,3.087h9.261a1.544,1.544,0,1,0,0-3.087ZM21.8,40.5H15.631a1.544,1.544,0,0,0,0,3.087H21.8a1.544,1.544,0,0,0,0-3.087Z" transform="translate(2.173 2.173)" fill="#0abcd0"/>
          <path id="Path_733" data-name="Path 733" d="M25.521,33.412H16.26a3.09,3.09,0,0,1-3.087-3.087v-3.9a13.869,13.869,0,0,1-6-13.756A13.893,13.893,0,1,1,28.608,26.428v3.9A3.09,3.09,0,0,1,25.521,33.412ZM20.9,4.086a11.432,11.432,0,0,0-1.253.069,10.8,10.8,0,0,0-4.16,20.083,1.542,1.542,0,0,1,.77,1.335v4.752h9.261V25.573a1.54,1.54,0,0,1,.77-1.335,10.794,10.794,0,0,0,1.8-17.4A10.678,10.678,0,0,0,20.9,4.084Z" transform="translate(0 0)" fill="#e68028"/>
        </g>
      </g>
      <g id="Group_303" data-name="Group 303" transform="translate(-9 -34)">
        <g transform="matrix(1, 0, 0, 1, -22.5, -22.5)" filter="url(#Rectangle_46-2)">
          <rect id="Rectangle_46-4" data-name="Rectangle 46" width="193" height="81" rx="10" transform="translate(22.5 124.5)" fill="#fff"/>
        </g>
        <path id="Intersection_10" data-name="Intersection 10" d="M399.648-2201.478a4.5,4.5,0,0,1-1.782-1.808,5.548,5.548,0,0,1-.639-2.7,5.655,5.655,0,0,1,.63-2.718,4.4,4.4,0,0,1,1.764-1.8,5.284,5.284,0,0,1,2.61-.631,5.233,5.233,0,0,1,2.547.613,4.3,4.3,0,0,1,1.746,1.737,5.253,5.253,0,0,1,.621,2.583,5.9,5.9,0,0,1-.072.972h-7.29a2.48,2.48,0,0,0,.756,1.691,2.329,2.329,0,0,0,1.638.612,2.057,2.057,0,0,0,2-1.206h2.718a4.542,4.542,0,0,1-1.656,2.368,4.837,4.837,0,0,1-3.006.927A5.2,5.2,0,0,1,399.648-2201.478Zm.936-7.02a2.5,2.5,0,0,0-.783,1.575h4.734a1.994,1.994,0,0,0-.7-1.556,2.482,2.482,0,0,0-1.674-.585A2.293,2.293,0,0,0,400.584-2208.5Zm-20.592,7.011a4.534,4.534,0,0,1-1.638-1.826,5.878,5.878,0,0,1-.6-2.709,5.78,5.78,0,0,1,.6-2.683,4.423,4.423,0,0,1,1.638-1.8,4.362,4.362,0,0,1,2.313-.631,4.067,4.067,0,0,1,1.953.45,3.977,3.977,0,0,1,1.341,1.134v-1.421h2.538V-2201H385.6v-1.459a3.736,3.736,0,0,1-1.341,1.161,4.092,4.092,0,0,1-1.971.46A4.231,4.231,0,0,1,379.992-2201.487Zm1.665-7.091a2.58,2.58,0,0,0-.963,1,3.136,3.136,0,0,0-.369,1.558,3.231,3.231,0,0,0,.369,1.574,2.663,2.663,0,0,0,.972,1.035,2.47,2.47,0,0,0,1.287.361,2.587,2.587,0,0,0,1.314-.352,2.524,2.524,0,0,0,.972-1.007,3.233,3.233,0,0,0,.36-1.576,3.233,3.233,0,0,0-.36-1.575,2.54,2.54,0,0,0-.972-1.008,2.6,2.6,0,0,0-1.314-.35A2.547,2.547,0,0,0,381.657-2208.578Zm-27.783,7.1a4.5,4.5,0,0,1-1.782-1.808,5.549,5.549,0,0,1-.639-2.7,5.655,5.655,0,0,1,.63-2.718,4.4,4.4,0,0,1,1.764-1.8,5.284,5.284,0,0,1,2.61-.631,5.233,5.233,0,0,1,2.547.613,4.3,4.3,0,0,1,1.746,1.737,5.253,5.253,0,0,1,.621,2.583,5.9,5.9,0,0,1-.072.972h-7.29a2.48,2.48,0,0,0,.756,1.691,2.329,2.329,0,0,0,1.638.612,2.057,2.057,0,0,0,2-1.206h2.718a4.542,4.542,0,0,1-1.656,2.368,4.837,4.837,0,0,1-3.006.927A5.2,5.2,0,0,1,353.874-2201.478Zm.936-7.02a2.5,2.5,0,0,0-.783,1.575h4.734a1.994,1.994,0,0,0-.7-1.556,2.482,2.482,0,0,0-1.674-.585A2.293,2.293,0,0,0,354.81-2208.5Zm-18.315,7.011a4.509,4.509,0,0,1-1.647-1.826,5.878,5.878,0,0,1-.6-2.709,5.78,5.78,0,0,1,.6-2.683,4.4,4.4,0,0,1,1.647-1.8,4.41,4.41,0,0,1,2.322-.631,4.226,4.226,0,0,1,1.854.424,3.693,3.693,0,0,1,1.4,1.125v-4.735h2.556V-2201h-2.556v-1.477a3.4,3.4,0,0,1-1.314,1.188,4.105,4.105,0,0,1-1.962.451A4.276,4.276,0,0,1,336.495-2201.487Zm1.656-7.091a2.579,2.579,0,0,0-.963,1,3.136,3.136,0,0,0-.369,1.558,3.231,3.231,0,0,0,.369,1.574,2.663,2.663,0,0,0,.972,1.035,2.47,2.47,0,0,0,1.287.361,2.587,2.587,0,0,0,1.314-.352,2.524,2.524,0,0,0,.972-1.007,3.233,3.233,0,0,0,.36-1.576,3.232,3.232,0,0,0-.36-1.575,2.54,2.54,0,0,0-.972-1.008,2.6,2.6,0,0,0-1.314-.35A2.547,2.547,0,0,0,338.151-2208.578Zm-13.86,7.091a4.509,4.509,0,0,1-1.647-1.826,5.878,5.878,0,0,1-.6-2.709,5.78,5.78,0,0,1,.6-2.683,4.4,4.4,0,0,1,1.647-1.8,4.41,4.41,0,0,1,2.322-.631,4.226,4.226,0,0,1,1.854.424,3.693,3.693,0,0,1,1.4,1.125v-4.735h2.556V-2201h-2.556v-1.477a3.4,3.4,0,0,1-1.314,1.188,4.1,4.1,0,0,1-1.962.451A4.276,4.276,0,0,1,324.291-2201.487Zm1.656-7.091a2.58,2.58,0,0,0-.963,1,3.136,3.136,0,0,0-.369,1.558,3.231,3.231,0,0,0,.369,1.574,2.663,2.663,0,0,0,.972,1.035,2.47,2.47,0,0,0,1.287.361,2.587,2.587,0,0,0,1.314-.352,2.524,2.524,0,0,0,.972-1.007,3.233,3.233,0,0,0,.36-1.576,3.233,3.233,0,0,0-.36-1.575,2.54,2.54,0,0,0-.972-1.008,2.6,2.6,0,0,0-1.314-.35A2.547,2.547,0,0,0,325.947-2208.578ZM390.6-2201v-9.972h2.52v1.547a3.553,3.553,0,0,1,1.269-1.242,3.535,3.535,0,0,1,1.791-.449v2.646h-.666a2.554,2.554,0,0,0-1.791.557,2.576,2.576,0,0,0-.6,1.944V-2201Zm-19.206,0-1.818-6.967L367.761-2201h-2.736l-2.934-9.972h2.556l1.764,7.6,1.908-7.6h2.664l1.872,7.577,1.764-7.577h2.412L374.115-2201Zm-24.3,0v-13.321h2.52V-2201Zm-29.412,0v-9.972h2.52V-2201Zm-5,0v-8.173L309.315-2201h-1.908l-3.384-8.173V-2201H301.5v-12.564h2.862l4,9.342,4-9.342H315.2V-2201Zm5.175-11.584a1.4,1.4,0,0,1-.441-1.052,1.4,1.4,0,0,1,.441-1.053,1.534,1.534,0,0,1,1.107-.424,1.531,1.531,0,0,1,1.107.424,1.4,1.4,0,0,1,.441,1.053,1.4,1.4,0,0,1-.441,1.052,1.531,1.531,0,0,1-1.107.424A1.534,1.534,0,0,1,317.856-2212.583Z" transform="translate(-231 2352)" fill="#0abcd0" stroke="rgba(0,0,0,0)" stroke-miterlimit="10" stroke-width="1"/>
        <g id="Group_332" data-name="Group 332" transform="translate(13.867 122.434)">
          <path id="Path_734" data-name="Path 734" d="M0,0H44.133V44.133H0Z" fill="none"/>
          <path id="Path_735" data-name="Path 735" d="M6.678,17.711H32.422V6.678H6.678ZM36.1,4.839V34.261A1.839,1.839,0,0,1,34.261,36.1H4.839A1.839,1.839,0,0,1,3,34.261V4.839A1.839,1.839,0,0,1,4.839,3H34.261A1.839,1.839,0,0,1,36.1,4.839Zm-3.678,16.55H6.678V32.422H32.422Z" transform="translate(2.517 2.517)" fill="#0abcd0"/>
          <rect id="Rectangle_55" data-name="Rectangle 55" width="6" height="4" transform="translate(12.133 12.566)" fill="#e68028"/>
          <rect id="Rectangle_56" data-name="Rectangle 56" width="6" height="4" transform="translate(12.133 27.566)" fill="#e68028"/>
        </g>
      </g>
      <g id="Group_304" data-name="Group 304" transform="translate(-5 -9)">
        <g transform="matrix(1, 0, 0, 1, -26.5, -47.5)" filter="url(#Rectangle_47-2)">
          <rect id="Rectangle_47-5" data-name="Rectangle 47" width="193" height="81" rx="10" transform="translate(54.5 232.5)" fill="#fff"/>
        </g>
        <g id="Group_301" data-name="Group 301" transform="translate(-24.94 -15.94)">
          <g id="Group_333" data-name="Group 333" transform="translate(74.688 220.688)">
            <path id="Path_736" data-name="Path 736" d="M0,0H40.565V40.565H0Z" fill="none"/>
            <path id="Path_737" data-name="Path 737" d="M2,32.424H35.8V35.8H2ZM5.38,18.9h3.38V30.733H5.38Zm23.663,0h3.38V30.733h-3.38ZM2,10.451,18.9,2l16.9,8.451v6.761H2ZM5.38,12.54v1.291H32.424V12.54L18.9,5.779Zm13.522-.4a1.69,1.69,0,1,1,1.69-1.69A1.69,1.69,0,0,1,18.9,12.141Z" transform="translate(1.38 1.38)" fill="#0abcd0"/>
          </g>
          <rect id="Rectangle_57" data-name="Rectangle 57" width="5" height="12" transform="translate(88.94 240.94)" fill="#e68028"/>
          <rect id="Rectangle_58" data-name="Rectangle 58" width="4" height="12" transform="translate(96.94 240.94)" fill="#e68028"/>
        </g>
        <path id="Intersection_11" data-name="Intersection 11" d="M324.611-2226.324a3.893,3.893,0,0,1-1.665-1.3,3.413,3.413,0,0,1-.63-2h2.7a1.746,1.746,0,0,0,.549,1.224,1.947,1.947,0,0,0,1.359.45,2.092,2.092,0,0,0,1.386-.423,1.378,1.378,0,0,0,.5-1.107,1.279,1.279,0,0,0-.342-.918,2.386,2.386,0,0,0-.855-.567,13.816,13.816,0,0,0-1.413-.459,15.185,15.185,0,0,1-1.989-.711,3.491,3.491,0,0,1-1.314-1.062,3.026,3.026,0,0,1-.549-1.9,3.4,3.4,0,0,1,.558-1.944,3.537,3.537,0,0,1,1.566-1.269,5.691,5.691,0,0,1,2.3-.441,5,5,0,0,1,3.159.945,3.5,3.5,0,0,1,1.341,2.637h-2.772a1.44,1.44,0,0,0-.549-1.071,2.07,2.07,0,0,0-1.359-.423,1.75,1.75,0,0,0-1.179.378,1.365,1.365,0,0,0-.441,1.1,1.134,1.134,0,0,0,.333.837,2.56,2.56,0,0,0,.828.54q.5.207,1.395.477a14.5,14.5,0,0,1,2,.72,3.574,3.574,0,0,1,1.332,1.08,3,3,0,0,1,.558,1.89,3.555,3.555,0,0,1-.522,1.872,3.686,3.686,0,0,1-1.53,1.377,5.218,5.218,0,0,1-2.394.513A5.976,5.976,0,0,1,324.611-2226.324Zm-24.858-.387a6,6,0,0,1-2.286-2.277,6.532,6.532,0,0,1-.837-3.312,6.581,6.581,0,0,1,.837-3.321,5.973,5.973,0,0,1,2.286-2.286,6.482,6.482,0,0,1,3.249-.819,6.391,6.391,0,0,1,3.69,1.08,5.647,5.647,0,0,1,2.214,2.988h-2.9a3,3,0,0,0-1.215-1.35,3.56,3.56,0,0,0-1.809-.45,3.721,3.721,0,0,0-1.953.513,3.5,3.5,0,0,0-1.332,1.449,4.781,4.781,0,0,0-.477,2.2,4.794,4.794,0,0,0,.477,2.187,3.488,3.488,0,0,0,1.332,1.458,3.721,3.721,0,0,0,1.953.513,3.509,3.509,0,0,0,1.809-.459,3.061,3.061,0,0,0,1.215-1.359h2.9a5.621,5.621,0,0,1-2.2,3,6.422,6.422,0,0,1-3.7,1.071A6.492,6.492,0,0,1,299.753-2226.711Zm11.313.711v-12.564h5.184a5.37,5.37,0,0,1,2.2.414,3.131,3.131,0,0,1,1.4,1.152,3.016,3.016,0,0,1,.477,1.674,2.866,2.866,0,0,1-.585,1.836,3.132,3.132,0,0,1-1.557,1.044,2.822,2.822,0,0,1,1.746,1.062,3.1,3.1,0,0,1,.684,1.98,3.192,3.192,0,0,1-.495,1.773,3.3,3.3,0,0,1-1.431,1.2,5.244,5.244,0,0,1-2.214.432Zm2.52-2.052h2.538a2.157,2.157,0,0,0,1.431-.432,1.513,1.513,0,0,0,.513-1.224,1.577,1.577,0,0,0-.54-1.269,2.178,2.178,0,0,0-1.458-.459h-2.484Zm0-5.328h2.3a2.109,2.109,0,0,0,1.386-.405,1.426,1.426,0,0,0,.486-1.161,1.452,1.452,0,0,0-.486-1.17,2.075,2.075,0,0,0-1.386-.414h-2.3Z" transform="translate(-190 2459)" fill="#0abcd0" stroke="rgba(0,0,0,0)" stroke-miterlimit="10" stroke-width="1"/>
      </g>
      <g id="Group_306" data-name="Group 306" transform="translate(19 96)">
        <g transform="matrix(1, 0, 0, 1, -50.5, -152.5)" filter="url(#Rectangle_47-3)">
          <rect id="Rectangle_47-6" data-name="Rectangle 47" width="193" height="81" rx="10" transform="translate(78.5 337.5)" fill="#fff"/>
        </g>
        <g id="Group_307" data-name="Group 307" transform="translate(-67 -6.433)">
          <g id="Group_334" data-name="Group 334" transform="translate(112.866 214.867)">
            <path id="Path_738" data-name="Path 738" d="M0,0H36.133V36.133H0Z" fill="none"/>
            <path id="Path_739" data-name="Path 739" d="M2,4.5A1.506,1.506,0,0,1,3.494,3H30.618a1.5,1.5,0,0,1,1.494,1.5v24.11a1.506,1.506,0,0,1-1.494,1.5H3.494A1.5,1.5,0,0,1,2,28.605ZM5.011,6.011V27.089H29.1V6.011ZM8.022,9.022h9.033v9.033H8.022Zm3.011,3.011v3.011h3.011V12.033ZM8.022,21.067H26.089v3.011H8.022Z" transform="translate(1.011 1.517)" fill="#0abcd0"/>
            <path id="Path_746" data-name="Path 746" d="M14.109,7.679h9.122v3.253H14.109Z" transform="translate(5.3 2.884)" fill="#e68028"/>
            <path id="Path_747" data-name="Path 747" d="M14.109,7.679h9.122v3.253H14.109Z" transform="translate(5.3 8.762)" fill="#e68028"/>
          </g>
        </g>
        <path id="Intersection_12" data-name="Intersection 12" d="M376.319-2311.477a4.5,4.5,0,0,1-1.782-1.809,5.542,5.542,0,0,1-.639-2.7,5.656,5.656,0,0,1,.63-2.718,4.4,4.4,0,0,1,1.764-1.8,5.291,5.291,0,0,1,2.61-.63,5.244,5.244,0,0,1,2.547.612,4.308,4.308,0,0,1,1.746,1.737,5.258,5.258,0,0,1,.621,2.583,5.881,5.881,0,0,1-.072.972h-7.29a2.481,2.481,0,0,0,.756,1.692,2.329,2.329,0,0,0,1.638.612,2.057,2.057,0,0,0,2-1.206h2.718a4.537,4.537,0,0,1-1.656,2.367,4.832,4.832,0,0,1-3.006.927A5.2,5.2,0,0,1,376.319-2311.477Zm.936-7.02a2.5,2.5,0,0,0-.783,1.575h4.734a2,2,0,0,0-.7-1.557,2.487,2.487,0,0,0-1.674-.585A2.289,2.289,0,0,0,377.255-2318.5Zm-11.817,7.02a4.507,4.507,0,0,1-1.746-1.8,5.6,5.6,0,0,1-.63-2.709,5.6,5.6,0,0,1,.63-2.709,4.514,4.514,0,0,1,1.746-1.8,5.059,5.059,0,0,1,2.556-.639,4.916,4.916,0,0,1,3.069.927,4.508,4.508,0,0,1,1.629,2.6h-2.718a1.99,1.99,0,0,0-.729-1.017,2.119,2.119,0,0,0-1.269-.369,2.079,2.079,0,0,0-1.71.783,3.47,3.47,0,0,0-.63,2.223,3.436,3.436,0,0,0,.63,2.205,2.079,2.079,0,0,0,1.71.783,1.91,1.91,0,0,0,2-1.368h2.718a4.594,4.594,0,0,1-1.638,2.574,4.825,4.825,0,0,1-3.06.954A5.047,5.047,0,0,1,365.438-2311.477Zm-24.237-.009a4.537,4.537,0,0,1-1.638-1.827,5.872,5.872,0,0,1-.6-2.709,5.78,5.78,0,0,1,.6-2.682,4.431,4.431,0,0,1,1.638-1.8,4.368,4.368,0,0,1,2.313-.63,4.067,4.067,0,0,1,1.953.45,3.976,3.976,0,0,1,1.341,1.134v-1.422h2.538V-2311h-2.538v-1.458a3.742,3.742,0,0,1-1.341,1.161,4.1,4.1,0,0,1-1.971.459A4.238,4.238,0,0,1,341.2-2311.486Zm1.665-7.092a2.59,2.59,0,0,0-.963,1,3.136,3.136,0,0,0-.369,1.557,3.235,3.235,0,0,0,.369,1.575,2.661,2.661,0,0,0,.972,1.035,2.467,2.467,0,0,0,1.287.36,2.6,2.6,0,0,0,1.314-.351,2.527,2.527,0,0,0,.972-1.008,3.229,3.229,0,0,0,.36-1.575,3.23,3.23,0,0,0-.36-1.575,2.536,2.536,0,0,0-.972-1.008,2.6,2.6,0,0,0-1.314-.351A2.557,2.557,0,0,0,342.866-2318.578Zm-31.761,7.1a4.5,4.5,0,0,1-1.782-1.809,5.542,5.542,0,0,1-.639-2.7,5.656,5.656,0,0,1,.63-2.718,4.4,4.4,0,0,1,1.764-1.8,5.291,5.291,0,0,1,2.61-.63,5.243,5.243,0,0,1,2.547.612,4.308,4.308,0,0,1,1.746,1.737,5.257,5.257,0,0,1,.621,2.583,5.884,5.884,0,0,1-.072.972h-7.29a2.481,2.481,0,0,0,.756,1.692,2.329,2.329,0,0,0,1.638.612,2.057,2.057,0,0,0,2-1.206h2.718a4.537,4.537,0,0,1-1.656,2.367,4.832,4.832,0,0,1-3.006.927A5.2,5.2,0,0,1,311.1-2311.477Zm.936-7.02a2.5,2.5,0,0,0-.783,1.575h4.734a2,2,0,0,0-.7-1.557,2.487,2.487,0,0,0-1.674-.585A2.289,2.289,0,0,0,312.041-2318.5Zm-23.139,7.02a4.6,4.6,0,0,1-1.809-1.809,5.423,5.423,0,0,1-.657-2.7,5.307,5.307,0,0,1,.675-2.7,4.7,4.7,0,0,1,1.845-1.809,5.362,5.362,0,0,1,2.61-.639,5.357,5.357,0,0,1,2.61.639,4.7,4.7,0,0,1,1.845,1.809,5.307,5.307,0,0,1,.675,2.7,5.188,5.188,0,0,1-.693,2.7,4.788,4.788,0,0,1-1.872,1.809,5.434,5.434,0,0,1-2.637.639A5.248,5.248,0,0,1,288.9-2311.477Zm.819-6.7a3.049,3.049,0,0,0-.729,2.187,3.1,3.1,0,0,0,.711,2.187,2.341,2.341,0,0,0,1.791.765,2.617,2.617,0,0,0,1.287-.333,2.419,2.419,0,0,0,.963-1,3.362,3.362,0,0,0,.36-1.62,3,3,0,0,0-.747-2.187,2.458,2.458,0,0,0-1.827-.765A2.4,2.4,0,0,0,289.721-2318.173Zm-13.95,6.462a5.96,5.96,0,0,1-2.3-2.277,6.53,6.53,0,0,1-.837-3.312,6.583,6.583,0,0,1,.837-3.321,5.946,5.946,0,0,1,2.3-2.286,6.6,6.6,0,0,1,3.267-.819,6.541,6.541,0,0,1,3.69,1.035,5.287,5.287,0,0,1,2.16,2.907h-2.9a2.955,2.955,0,0,0-1.188-1.206,3.61,3.61,0,0,0-1.764-.414,3.861,3.861,0,0,0-1.98.5,3.485,3.485,0,0,0-1.35,1.44,4.624,4.624,0,0,0-.486,2.16,4.638,4.638,0,0,0,.495,2.2,3.5,3.5,0,0,0,1.377,1.44,4.06,4.06,0,0,0,2.052.5,3.558,3.558,0,0,0,2.358-.765,3.646,3.646,0,0,0,1.206-2.133h-4.32v-1.926h6.8v2.2a5.886,5.886,0,0,1-1.08,2.43,6.093,6.093,0,0,1-2.133,1.791,6.27,6.27,0,0,1-2.925.675A6.624,6.624,0,0,1,275.771-2311.711ZM358.8-2311v-5.508a2.586,2.586,0,0,0-.594-1.827,2.1,2.1,0,0,0-1.62-.639,2.157,2.157,0,0,0-1.647.639,2.565,2.565,0,0,0-.6,1.827V-2311h-2.52v-9.972h2.52v1.242a3.491,3.491,0,0,1,1.287-1.017,3.988,3.988,0,0,1,1.719-.369,3.844,3.844,0,0,1,2.88,1.125,4.306,4.306,0,0,1,1.1,3.141v5.85Zm-24.1,0v-5.508a2.586,2.586,0,0,0-.594-1.827,2.1,2.1,0,0,0-1.62-.639,2.158,2.158,0,0,0-1.647.639,2.565,2.565,0,0,0-.6,1.827V-2311h-2.52v-9.972h2.52v1.242a3.491,3.491,0,0,1,1.287-1.017,3.988,3.988,0,0,1,1.719-.369,3.844,3.844,0,0,1,2.88,1.125,4.306,4.306,0,0,1,1.1,3.141v5.85Zm-14.256,0v-9.972h2.52v1.548a3.553,3.553,0,0,1,1.269-1.242,3.533,3.533,0,0,1,1.791-.45v2.646h-.666a2.555,2.555,0,0,0-1.791.558,2.577,2.577,0,0,0-.6,1.944V-2311Zm-19.278,0-3.672-9.972h2.7l2.52,7.65,2.52-7.65h2.682L304.22-2311Zm-16.272-8.784Zm48.222-6.5,2.16-4.968-4-9.72H334.1l2.574,6.966,2.61-6.966h2.682l-6.174,14.688Zm-40.887-5.193a4.5,4.5,0,0,1-1.782-1.809,5.547,5.547,0,0,1-.639-2.7,5.654,5.654,0,0,1,.63-2.718,4.4,4.4,0,0,1,1.764-1.8,5.284,5.284,0,0,1,2.61-.63,5.243,5.243,0,0,1,2.547.612,4.3,4.3,0,0,1,1.746,1.737,5.256,5.256,0,0,1,.621,2.583,5.881,5.881,0,0,1-.072.972h-7.29a2.481,2.481,0,0,0,.756,1.692,2.329,2.329,0,0,0,1.638.612,2.057,2.057,0,0,0,2-1.206h2.718a4.54,4.54,0,0,1-1.656,2.367,4.831,4.831,0,0,1-3.006.927A5.206,5.206,0,0,1,292.223-2331.477Zm.936-7.02a2.5,2.5,0,0,0-.783,1.575h4.734a2,2,0,0,0-.7-1.557,2.487,2.487,0,0,0-1.674-.585A2.289,2.289,0,0,0,293.159-2338.5Zm-13.311,7.011a4.518,4.518,0,0,1-1.647-1.827,5.876,5.876,0,0,1-.6-2.709,5.78,5.78,0,0,1,.6-2.682,4.41,4.41,0,0,1,1.647-1.8,4.409,4.409,0,0,1,2.322-.63,4.238,4.238,0,0,1,1.854.423,3.693,3.693,0,0,1,1.4,1.125v-4.734h2.556V-2331h-2.556v-1.476a3.4,3.4,0,0,1-1.314,1.188,4.116,4.116,0,0,1-1.962.45A4.284,4.284,0,0,1,279.848-2331.486Zm1.656-7.092a2.577,2.577,0,0,0-.963,1,3.133,3.133,0,0,0-.369,1.557,3.235,3.235,0,0,0,.369,1.575,2.667,2.667,0,0,0,.972,1.035,2.469,2.469,0,0,0,1.287.36,2.6,2.6,0,0,0,1.314-.351,2.527,2.527,0,0,0,.972-1.008,3.229,3.229,0,0,0,.36-1.575,3.229,3.229,0,0,0-.36-1.575,2.53,2.53,0,0,0-.972-1.008,2.6,2.6,0,0,0-1.314-.351A2.557,2.557,0,0,0,281.5-2338.578Zm47.52,7.578q-3.186,0-3.186-3.1v-4.806H324.65v-2.07h1.188v-2.466h2.538v2.466h2.232v2.07h-2.232v4.824a.954.954,0,0,0,.243.729,1.193,1.193,0,0,0,.819.225h1.17V-2331Zm-8.586,0v-9.972h2.52V-2331Zm-3.4,0q-3.186,0-3.186-3.1v-4.806h-1.188v-2.07h1.188v-2.466h2.538v2.466h2.232v2.07h-2.232v4.824a.954.954,0,0,0,.243.729,1.193,1.193,0,0,0,.819.225h1.17V-2331Zm-8.5,0v-5.508a2.585,2.585,0,0,0-.594-1.827,2.1,2.1,0,0,0-1.62-.639,2.157,2.157,0,0,0-1.647.639,2.563,2.563,0,0,0-.6,1.827V-2331h-2.52v-9.972h2.52v1.242a3.481,3.481,0,0,1,1.287-1.017,3.988,3.988,0,0,1,1.719-.369,3.844,3.844,0,0,1,2.88,1.125,4.3,4.3,0,0,1,1.1,3.141v5.85Zm-35.3,0v-12.564h2.52V-2331Zm47.367-11.583a1.4,1.4,0,0,1-.441-1.053,1.4,1.4,0,0,1,.441-1.053,1.538,1.538,0,0,1,1.107-.423,1.535,1.535,0,0,1,1.107.423,1.4,1.4,0,0,1,.441,1.053,1.4,1.4,0,0,1-.441,1.053,1.535,1.535,0,0,1-1.107.423A1.537,1.537,0,0,1,320.609-2342.583Z" transform="translate(-173 2554)" fill="#0abcd0" stroke="rgba(0,0,0,0)" stroke-miterlimit="10" stroke-width="1"/>
      </g>
    </g>
    <g id="Group_288" data-name="Group 288" transform="translate(187 23.829)">
      <path id="Intersection_13" data-name="Intersection 13" d="M290.891,203.171V187.53h3.223v15.641Zm-14.395,0V187.53h6.1a7.068,7.068,0,0,1,3.1.644,4.758,4.758,0,0,1,2.057,1.832,5.11,5.11,0,0,1,.719,2.7,4.494,4.494,0,0,1-1.573,3.626,6.558,6.558,0,0,1-4.356,1.327h-2.825v5.511Zm3.223-8.122H282.6a2.836,2.836,0,0,0,1.95-.6,2.189,2.189,0,0,0,.671-1.719,2.582,2.582,0,0,0-.677-1.858,2.53,2.53,0,0,0-1.869-.73h-2.954Zm-8.111,8.122-1.085-3.223h-5.651l-1.074,3.223h-3.427l5.822-15.641h2.987l5.854,15.641Zm-5.865-5.833h3.91l-1.966-5.854Z" transform="translate(112 2465)" fill="#182f4b" stroke="rgba(0,0,0,0)" stroke-miterlimit="10" stroke-width="1"/>
      <path id="Intersection_14" data-name="Intersection 14" d="M264.109,203.705a5.44,5.44,0,0,1-2.363-1.893,4.845,4.845,0,0,1-.814-2.785h3.38q0,2.707,3.235,2.706a3.148,3.148,0,0,0,1.876-.489,1.589,1.589,0,0,0,.673-1.364,1.728,1.728,0,0,0-.673-1.465A8.836,8.836,0,0,0,267,197.338a17.175,17.175,0,0,1-2.774-1.118q-2.785-1.505-2.785-4.054a3.948,3.948,0,0,1,.746-2.364,4.869,4.869,0,0,1,2.146-1.623,8.063,8.063,0,0,1,3.138-.584,7.349,7.349,0,0,1,3.122.634,4.973,4.973,0,0,1,2.129,1.791,4.684,4.684,0,0,1,.758,2.628h-3.369a2.2,2.2,0,0,0-.707-1.746,2.908,2.908,0,0,0-1.988-.624,3.114,3.114,0,0,0-1.921.522,1.649,1.649,0,0,0-.685,1.376,1.576,1.576,0,0,0,.8,1.337,9.079,9.079,0,0,0,2.364,1.011,10.217,10.217,0,0,1,4.189,2.145,4.271,4.271,0,0,1,1.314,3.19,3.934,3.934,0,0,1-1.606,3.33,7.033,7.033,0,0,1-4.324,1.207A8.345,8.345,0,0,1,264.109,203.705Zm35.915.466-4.2-6.559-1.752,1.887v4.672H290.7V187.819h3.369v7.412l1.483-2.032,4.166-5.38h4.145l-5.807,7.267L304,204.119v.052Zm-24.269,0V187.819h5.032a7.636,7.636,0,0,1,3.857.972,6.775,6.775,0,0,1,2.656,2.762,8.524,8.524,0,0,1,.955,4.072v.752a8.554,8.554,0,0,1-.938,4.055,6.719,6.719,0,0,1-2.645,2.751,7.71,7.71,0,0,1-3.852.988Zm3.37-2.706h1.628a3.662,3.662,0,0,0,3.021-1.292,5.834,5.834,0,0,0,1.066-3.7v-.865a5.928,5.928,0,0,0-1.033-3.779,3.646,3.646,0,0,0-3.02-1.285h-1.662Z" transform="translate(281 2465)" fill="#182f4b" stroke="rgba(0,0,0,0)" stroke-miterlimit="10" stroke-width="1"/>
      <path id="Intersection_15" data-name="Intersection 15" d="M364.346,207.661v-2.353l.473.011a2.55,2.55,0,0,0,1.316-.269,1.757,1.757,0,0,0,.682-.891l.365-.956-4.072-11.656h3.342l2.159,7.23,2.148-7.23H374v.256l-4.584,13.172-.258.612a3.543,3.543,0,0,1-3.437,2.278A4.893,4.893,0,0,1,364.346,207.661Zm-68.846-.425a4.419,4.419,0,0,1-1.837-1.316l1.375-1.89a3.637,3.637,0,0,0,2.814,1.3,2.662,2.662,0,0,0,1.922-.661,2.48,2.48,0,0,0,.688-1.875v-.623a3.591,3.591,0,0,1-2.825,1.213,4.113,4.113,0,0,1-3.389-1.638,6.809,6.809,0,0,1-1.294-4.345v-.129a6.81,6.81,0,0,1,1.273-4.307,4.124,4.124,0,0,1,3.433-1.633,3.618,3.618,0,0,1,2.975,1.311l.129-1.1h2.814v11.237a4.967,4.967,0,0,1-.692,2.653,4.455,4.455,0,0,1-1.95,1.719,6.848,6.848,0,0,1-2.943.59A6.372,6.372,0,0,1,295.5,207.237Zm1.2-12.466a4.763,4.763,0,0,0-.64,2.729,4.228,4.228,0,0,0,.634,2.476,2.017,2.017,0,0,0,1.74.9,2.155,2.155,0,0,0,2.03-1.063v-4.888a2.15,2.15,0,0,0-2.009-1.064A2.03,2.03,0,0,0,296.7,194.771Zm56.439,7.627a3.179,3.179,0,0,1-1.122-2.492,3.284,3.284,0,0,1,1.37-2.836,6.756,6.756,0,0,1,3.958-1h1.428V195.4a1.916,1.916,0,0,0-.413-1.289,1.627,1.627,0,0,0-1.3-.483,1.848,1.848,0,0,0-1.23.376,1.276,1.276,0,0,0-.445,1.031h-3.105a3.113,3.113,0,0,1,.624-1.868,4.113,4.113,0,0,1,1.761-1.348,6.422,6.422,0,0,1,2.557-.49,5.071,5.071,0,0,1,3.41,1.08,3.778,3.778,0,0,1,1.263,3.035v5.038a5.562,5.562,0,0,0,.462,2.5v.183h-3.137a3.447,3.447,0,0,1-.311-1.042,3.757,3.757,0,0,1-2.933,1.256A4.128,4.128,0,0,1,353.137,202.4Zm1.993-2.9-.011.183a1.242,1.242,0,0,0,.409.956,1.587,1.587,0,0,0,1.117.376,2.676,2.676,0,0,0,1.268-.307,2,2,0,0,0,.859-.822v-2h-1.16Q355.28,197.886,355.129,199.5Zm-73.106,2.814a4.588,4.588,0,0,1-1-3.147v-7.617h3.105v7.509q0,1.816,1.654,1.815a2.242,2.242,0,0,0,2.17-1.1v-8.229h3.115v11.624h-2.921l-.086-1.182a3.893,3.893,0,0,1-3.18,1.4A3.671,3.671,0,0,1,282.023,202.312Zm64.781.859v-16.5h3.115v16.5Zm-14.147,0V187.53h6.1a7.068,7.068,0,0,1,3.1.644,4.755,4.755,0,0,1,2.056,1.832,5.11,5.11,0,0,1,.72,2.7,4.492,4.492,0,0,1-1.574,3.626,6.557,6.557,0,0,1-4.356,1.327h-2.825v5.511Zm3.222-8.122h2.879a2.832,2.832,0,0,0,1.949-.6,2.186,2.186,0,0,0,.671-1.719,2.578,2.578,0,0,0-.677-1.858,2.527,2.527,0,0,0-1.868-.73h-2.955Zm-14.738,8.122-6.273-10.292v10.292h-3.223V187.53h3.223l6.284,10.313V187.53h3.212v15.641Zm-45.718,0v-16.5h3.115v16.5Zm-14.148,0V187.53h6.1a7.061,7.061,0,0,1,3.1.644,4.752,4.752,0,0,1,2.057,1.832,5.11,5.11,0,0,1,.72,2.7,4.492,4.492,0,0,1-1.574,3.626,6.558,6.558,0,0,1-4.356,1.327H264.5v5.511Zm3.223-8.122h2.879a2.832,2.832,0,0,0,1.949-.6A2.186,2.186,0,0,0,270,192.73a2.578,2.578,0,0,0-.677-1.858,2.527,2.527,0,0,0-1.868-.73H264.5Z" transform="translate(415 2465)" fill="#182f4b" stroke="rgba(0,0,0,0)" stroke-miterlimit="10" stroke-width="1"/>
      <g id="Group_252" data-name="Group 252" transform="translate(332 2516.171)">
        <g transform="matrix(1, 0, 0, 1, -394.5, -138.5)" filter="url(#Ellipse_66)">
          <ellipse id="Ellipse_66-2" data-name="Ellipse 66" cx="60" cy="59.5" rx="60" ry="59.5" transform="translate(394.5 138.5)" fill="#fff"/>
        </g>
        <g id="gateway-api" transform="translate(32.512 32.012)">
          <path id="Path_753" data-name="Path 753" d="M26.43,29.647V22.079a5.2,5.2,0,1,0-3.465,0v7.57a5.2,5.2,0,1,0,3.465,0ZM24.7,15.468A1.733,1.733,0,1,1,22.965,17.2,1.733,1.733,0,0,1,24.7,15.468Zm0,20.791a1.733,1.733,0,1,1,1.733-1.733A1.733,1.733,0,0,1,24.7,36.259Z" transform="translate(2.791 1.625)" fill="#e68028"/>
          <path id="Path_754" data-name="Path 754" d="M52.462,29.938a3.465,3.465,0,0,0,0-4.9L42.435,15.012l5.024-4.959a3.469,3.469,0,1,0-2.495-2.4l-4.979,4.914L29.938,2.514a3.465,3.465,0,0,0-4.9,0L15.012,12.544,10.054,7.516a3.469,3.469,0,1,0-2.4,2.5l4.912,4.978L2.514,25.039a3.465,3.465,0,0,0,0,4.9L12.563,39.986,7.651,44.963a3.462,3.462,0,1,0,2.4,2.5l4.959-5.024L25.039,52.462a3.465,3.465,0,0,0,4.9,0L39.987,42.415l4.976,4.914a3.462,3.462,0,1,0,2.5-2.4l-5.024-4.96ZM27.489,50.012,4.965,27.489,27.489,4.965,50.012,27.489Z" transform="translate(0 0)" fill="#0abcd0"/>
        </g>
      </g>
      <g id="Group_264" data-name="Group 264" transform="translate(500.142 2516.171)">
        <g transform="matrix(1, 0, 0, 1, -562.64, -138.5)" filter="url(#Ellipse_67)">
          <ellipse id="Ellipse_67-2" data-name="Ellipse 67" cx="60" cy="59.5" rx="60" ry="59.5" transform="translate(562.5 138.5)" fill="#fff"/>
        </g>
        <g id="box" transform="translate(29.303 27.913)">
          <path id="Path_751" data-name="Path 751" d="M34.682,34.309H18.936A3.936,3.936,0,0,1,15,30.373V26.436A3.936,3.936,0,0,1,18.936,22.5H34.682a3.936,3.936,0,0,1,3.936,3.936v3.936A3.936,3.936,0,0,1,34.682,34.309ZM18.936,26.436v3.936H34.682V26.436Z" transform="translate(3.746 5.15)" fill="#e68028"/>
          <path id="Path_752" data-name="Path 752" d="M54.173,6H6.936A3.936,3.936,0,0,0,3,9.936v7.873a3.936,3.936,0,0,0,3.936,3.936V53.237a3.936,3.936,0,0,0,3.936,3.936H50.237a3.936,3.936,0,0,0,3.936-3.936V21.746a3.936,3.936,0,0,0,3.936-3.936V9.936A3.936,3.936,0,0,0,54.173,6ZM50.237,53.237H10.873V21.746H50.237Zm3.936-35.428H6.936V9.936H54.173Z" fill="#0abcd0"/>
        </g>
      </g>
      <g id="Group_263" data-name="Group 263" transform="translate(668.284 2516.171)">
        <g transform="matrix(1, 0, 0, 1, -730.78, -138.5)" filter="url(#Ellipse_68)">
          <circle id="Ellipse_68-2" data-name="Ellipse 68" cx="59.5" cy="59.5" r="59.5" transform="translate(730.5 138.5)" fill="#fff"/>
        </g>
        <g id="Group_340" data-name="Group 340" transform="translate(0.524 -16.295)">
          <g id="plug" transform="translate(52.906 37.074) rotate(19)">
            <g id="Group_338" data-name="Group 338" transform="translate(0)">
              <path id="Path_755" data-name="Path 755" d="M14.078,0a1.76,1.76,0,0,1,1.76,1.76v8.8H26.4V1.76a1.76,1.76,0,0,1,3.52,0v8.8h3.52a1.76,1.76,0,0,1,1.76,1.76V22.877A12.318,12.318,0,0,1,22.877,35.2c-.007,1.527-.035,2.974-.141,4.294A15.082,15.082,0,0,1,21.621,44.5a7.331,7.331,0,0,1-3.414,3.618,12.91,12.91,0,0,1-5.888,1.154c-3.513,0-5.666,1.161-6.948,2.527A6.765,6.765,0,0,0,3.52,56.313H0a10.3,10.3,0,0,1,2.805-6.926c2.031-2.154,5.153-3.632,9.513-3.632a9.456,9.456,0,0,0,4.287-.771,3.822,3.822,0,0,0,1.809-1.936,11.641,11.641,0,0,0,.809-3.836c.1-1.2.123-2.527.13-4.016A12.318,12.318,0,0,1,7.039,22.877V12.318a1.76,1.76,0,0,1,1.76-1.76h3.52V1.76A1.76,1.76,0,0,1,14.078,0Zm-3.52,14.078v8.8a8.8,8.8,0,0,0,8.8,8.8h3.52a8.8,8.8,0,0,0,8.8-8.8v-8.8Z" fill="#0abcd0"/>
            </g>
          </g>
          <g id="Group_339" data-name="Group 339" transform="translate(34.572 69.425)">
            <path id="Path_626" data-name="Path 626" d="M8.341,42.341A4.682,4.682,0,0,1,3.678,37.67v-31a4.661,4.661,0,0,1,7.044-4.006l26.044,15.5a4.663,4.663,0,0,1,0,8.012l-26.042,15.5a4.653,4.653,0,0,1-2.383.663ZM8.347,5.229a1.488,1.488,0,0,0-.718.192A1.409,1.409,0,0,0,6.9,6.668v31A1.436,1.436,0,0,0,9.073,38.9L35.116,23.4a1.433,1.433,0,0,0,0-2.465L9.072,5.435a1.384,1.384,0,0,0-.724-.207Z" transform="translate(-3.678 -1.997)" fill="#e68028"/>
          </g>
        </g>
      </g>
    </g>
    <g id="Group_289" data-name="Group 289" transform="translate(907 2505)">
      <path id="Path_693" data-name="Path 693" d="M0,0H34.022V34.022H0Z" fill="none"/>
      <path id="Path_694" data-name="Path 694" d="M14.505,18.505,6,10H23.011Z" transform="translate(2.505 4.176)" fill="#0abcd0"/>
    </g>
    <g id="Group_290" data-name="Group 290" transform="translate(545 2705)">
      <path id="Path_693-2" data-name="Path 693" d="M0,34.022H34.022V0H0Z" fill="none"/>
      <path id="Path_694-2" data-name="Path 694" d="M14.505,10,6,18.505H23.011Z" transform="translate(2.505 1.341)" fill="#0abcd0"/>
    </g>
  </g>
</svg>
