<svg xmlns="http://www.w3.org/2000/svg" xmlns:xlink="http://www.w3.org/1999/xlink" width="116" height="116" viewBox="0 0 116 116">
  <defs>
    <filter id="Ellipse_105" x="0" y="0" width="116" height="116" filterUnits="userSpaceOnUse">
      <feOffset dy="1" input="SourceAlpha"/>
      <feGaussianBlur stdDeviation="6" result="blur"/>
      <feFlood flood-color="#2e4f8e" flood-opacity="0.122"/>
      <feComposite operator="in" in2="blur"/>
      <feComposite in="SourceGraphic"/>
    </filter>
  </defs>
  <g id="fi" transform="translate(18 17)">
    <g id="fi-2" data-name="fi" transform="translate(-1179 -346)">
      <g transform="matrix(1, 0, 0, 1, 1161, 329)" filter="url(#Ellipse_105)">
        <g id="Ellipse_105-2" data-name="Ellipse 105" transform="translate(18 17)" fill="#fff" stroke="#fff" stroke-width="5">
          <circle cx="40" cy="40" r="40" stroke="none"/>
          <circle cx="40" cy="40" r="37.5" fill="none"/>
        </g>
      </g>
      <g id="_63ca27d220764991013e217324463692" data-name="63ca27d220764991013e217324463692" transform="translate(1189.942 357.106)">
        <path id="Path_707" data-name="Path 707" d="M11.764,37.391h3.894V52.328H7.75V37.391Z" transform="translate(0 -3.761)"/>
        <path id="Path_708" data-name="Path 708" d="M11.764,34.115h3.894V49.053H7.75V34.115ZM34.137,10.39A9.665,9.665,0,1,0,43.8,20.055a9.677,9.677,0,0,0-9.665-9.665Z" transform="translate(0 -0.485)" fill="#e68028"/>
        <path id="Path_710" data-name="Path 710" d="M35.472,6.391a13.18,13.18,0,1,0,13.18,13.18,13.18,13.18,0,0,0-13.18-13.18Zm0,23.723A10.544,10.544,0,1,1,46.016,19.57,10.556,10.556,0,0,1,35.472,30.114ZM51.6,40.614a1.527,1.527,0,0,0-1.9-.963l-10.034,4.7-.028.012a2.619,2.619,0,0,1-1.112.246H30.148a.439.439,0,1,1,0-.879h8.373a1.757,1.757,0,1,0,0-3.515H30.893a.439.439,0,0,1-.428-.338,5.247,5.247,0,0,0-5.124-4.055h-6.59V46.646L32.2,51.195a4.561,4.561,0,0,0,3.95-.607l14.732-8.038a1.568,1.568,0,0,0,.724-1.935Z" transform="translate(-1.335)" fill="#0abcd0"/>
        <circle id="Ellipse_106" data-name="Ellipse 106" cx="11" cy="11" r="11" transform="translate(23.058 8.894)" fill="#0abcd0"/>
        <g id="bx-rupee" transform="translate(4.857 -3.671)">
          <g id="Group_317" data-name="Group 317" transform="translate(24 16)">
            <path id="Path_711" data-name="Path 711" d="M34.4,17.891V16H24v1.891h3.31a2.83,2.83,0,0,1,2.662,1.891H24v1.891h5.971a2.831,2.831,0,0,1-2.662,1.891H24v2.283l5.282,5.282h2.674l-5.673-5.673H27.31a4.734,4.734,0,0,0,4.631-3.782H34.4V19.782h-2.46a4.665,4.665,0,0,0-.874-1.891Z" transform="translate(-24 -16)" fill="#fff"/>
          </g>
        </g>
      </g>
    </g>
  </g>
</svg>
